<?xml version="1.0" encoding="UTF-8" standalone="no"?>
<!-- Created with Inkscape (http://www.inkscape.org/) -->

<svg
   xmlns:dc="http://purl.org/dc/elements/1.1/"
   xmlns:cc="http://creativecommons.org/ns#"
   xmlns:rdf="http://www.w3.org/1999/02/22-rdf-syntax-ns#"
   xmlns:svg="http://www.w3.org/2000/svg"
   xmlns="http://www.w3.org/2000/svg"
   xmlns:xlink="http://www.w3.org/1999/xlink"
   xmlns:sodipodi="http://sodipodi.sourceforge.net/DTD/sodipodi-0.dtd"
   xmlns:inkscape="http://www.inkscape.org/namespaces/inkscape"
   width="24.09"
   height="24.360001"
   id="svg2"
   version="1.1"
   inkscape:version="0.48.4 r9939"
   sodipodi:docname="control-center-symbolic.svg">
  <defs
     id="defs4">
    <linearGradient
       y2="13.952041"
       x2="9.0752506"
       y1="2.2159534"
       x1="9.0752506"
       gradientTransform="scale(1.0784122,0.9272892)"
       gradientUnits="userSpaceOnUse"
       id="linearGradient4003"
       xlink:href="#StandardGradient"
       inkscape:collect="always" />
    <linearGradient
       y2="13.952041"
       x2="9.0752506"
       y1="2.2159534"
       x1="9.0752506"
       gradientTransform="scale(1.0784122,0.9272892)"
       gradientUnits="userSpaceOnUse"
       id="linearGradient3999"
       xlink:href="#StandardGradient"
       inkscape:collect="always" />
    <clipPath
       id="clipPath3632"
       clipPathUnits="userSpaceOnUse">
      <path
         id="path3634"
         d="m -20,0 0,16 16,0 0,-16 -16,0 z m 8.09375,2.0625 c 0.173909,-0.017258 0.321577,0 0.5,0 2.967459,0 5.375001,2.4264215 5.375,5.4375 0,2.864578 -2.17034,5.215497 -4.9375,5.4375 l 0,-1.84375 C -9.191791,10.880677 -7.8125,9.3611571 -7.8125,7.5 c 0,-2.0073863 -1.615444,-3.624999 -3.59375,-3.625 -1.86764,0 -3.365967,1.4304651 -3.53125,3.28125 l 1.875,0 -2.90625,4.09375 -2.71875,-4.09375 1.9375,0 c 0.162577,-2.6743762 2.235116,-4.834874 4.84375,-5.09375 z"
         style="fill:#ff00ff;fill-opacity:1;stroke:none;display:inline" />
    </clipPath>
    <linearGradient
       y2="13.952041"
       x2="9.0752506"
       y1="2.2159534"
       x1="9.0752506"
       gradientTransform="matrix(1.0784122,0,0,0.9272892,-20,0)"
       gradientUnits="userSpaceOnUse"
       id="linearGradient3625"
       xlink:href="#StandardGradient"
       inkscape:collect="always" />
    <inkscape:perspective
       sodipodi:type="inkscape:persp3d"
       inkscape:vp_x="0 : 0.5 : 1"
       inkscape:vp_y="0 : 1000 : 0"
       inkscape:vp_z="1 : 0.5 : 1"
       inkscape:persp3d-origin="0.5 : 0.33333333 : 1"
       id="perspective3697" />
    <linearGradient
       gradientUnits="userSpaceOnUse"
       y2="13.952041"
       x2="9.0752506"
       y1="2.2159534"
       x1="9.0752506"
       gradientTransform="scale(1.0784122,0.9272892)"
       id="StandardGradient">
      <stop
         id="stop3280"
         offset="0"
         style="stop-color:#000000;stop-opacity:0.86274511;" />
      <stop
         id="stop3282"
         offset="1"
         style="stop-color:#000000;stop-opacity:0.47058824;" />
    </linearGradient>
    <inkscape:perspective
       id="perspective16"
       inkscape:persp3d-origin="8 : 5.3333333 : 1"
       inkscape:vp_z="16 : 8 : 1"
       inkscape:vp_y="0 : 1000 : 0"
       inkscape:vp_x="0 : 8 : 1"
       sodipodi:type="inkscape:persp3d" />
    <linearGradient
       y2="13.952041"
       x2="9.0752506"
       y1="2.2159534"
       x1="9.0752506"
       gradientTransform="scale(1.0784122,0.9272892)"
       gradientUnits="userSpaceOnUse"
       id="linearGradient4003-9"
       xlink:href="#StandardGradient-4"
       inkscape:collect="always" />
    <linearGradient
       y2="13.952041"
       x2="9.0752506"
       y1="2.2159534"
       x1="9.0752506"
       gradientTransform="scale(1.0784122,0.9272892)"
       gradientUnits="userSpaceOnUse"
       id="linearGradient3999-7"
       xlink:href="#StandardGradient-4"
       inkscape:collect="always" />
    <clipPath
       id="clipPath3632-6"
       clipPathUnits="userSpaceOnUse">
      <path
         id="path3634-2"
         d="m -20,0 0,16 16,0 0,-16 -16,0 z m 8.09375,2.0625 c 0.173909,-0.017258 0.321577,0 0.5,0 2.967459,0 5.375001,2.4264215 5.375,5.4375 0,2.864578 -2.17034,5.215497 -4.9375,5.4375 l 0,-1.84375 C -9.191791,10.880677 -7.8125,9.3611571 -7.8125,7.5 c 0,-2.0073863 -1.615444,-3.624999 -3.59375,-3.625 -1.86764,0 -3.365967,1.4304651 -3.53125,3.28125 l 1.875,0 -2.90625,4.09375 -2.71875,-4.09375 1.9375,0 c 0.162577,-2.6743762 2.235116,-4.834874 4.84375,-5.09375 z"
         style="fill:#ff00ff;fill-opacity:1;stroke:none;display:inline" />
    </clipPath>
    <linearGradient
       y2="13.952041"
       x2="9.0752506"
       y1="2.2159534"
       x1="9.0752506"
       gradientTransform="matrix(1.0784122,0,0,0.9272892,-20,0)"
       gradientUnits="userSpaceOnUse"
       id="linearGradient3625-7"
       xlink:href="#StandardGradient-4"
       inkscape:collect="always" />
    <inkscape:perspective
       sodipodi:type="inkscape:persp3d"
       inkscape:vp_x="0 : 0.5 : 1"
       inkscape:vp_y="0 : 1000 : 0"
       inkscape:vp_z="1 : 0.5 : 1"
       inkscape:persp3d-origin="0.5 : 0.33333333 : 1"
       id="perspective3697-6" />
    <linearGradient
       gradientUnits="userSpaceOnUse"
       y2="13.952041"
       x2="9.0752506"
       y1="2.2159534"
       x1="9.0752506"
       gradientTransform="scale(1.0784122,0.9272892)"
       id="StandardGradient-4">
      <stop
         id="stop3280-3"
         offset="0"
         style="stop-color:#000000;stop-opacity:0.86274511;" />
      <stop
         id="stop3282-8"
         offset="1"
         style="stop-color:#000000;stop-opacity:0.47058824;" />
    </linearGradient>
    <inkscape:perspective
       id="perspective16-3"
       inkscape:persp3d-origin="8 : 5.3333333 : 1"
       inkscape:vp_z="16 : 8 : 1"
       inkscape:vp_y="0 : 1000 : 0"
       inkscape:vp_x="0 : 8 : 1"
       sodipodi:type="inkscape:persp3d" />
    <inkscape:perspective
       sodipodi:type="inkscape:persp3d"
       inkscape:vp_x="0 : 8 : 1"
       inkscape:vp_y="0 : 1000 : 0"
       inkscape:vp_z="16 : 8 : 1"
       inkscape:persp3d-origin="8 : 5.3333333 : 1"
       id="perspective16-1" />
    <linearGradient
       id="StandardGradient-3"
       gradientTransform="scale(1.0784122,0.9272892)"
       x1="9.0752506"
       y1="2.2159534"
       x2="9.0752506"
       y2="13.952041"
       gradientUnits="userSpaceOnUse">
      <stop
         style="stop-color:#000000;stop-opacity:0.86274511;"
         offset="0"
         id="stop3280-9" />
      <stop
         style="stop-color:#000000;stop-opacity:0.47058824;"
         offset="1"
         id="stop3282-3" />
    </linearGradient>
    <inkscape:perspective
       id="perspective3697-64"
       inkscape:persp3d-origin="0.5 : 0.33333333 : 1"
       inkscape:vp_z="1 : 0.5 : 1"
       inkscape:vp_y="0 : 1000 : 0"
       inkscape:vp_x="0 : 0.5 : 1"
       sodipodi:type="inkscape:persp3d" />
    <linearGradient
       inkscape:collect="always"
       xlink:href="#StandardGradient-3"
       id="linearGradient3625-0"
       gradientUnits="userSpaceOnUse"
       gradientTransform="matrix(1.0784122,0,0,0.9272892,-20,0)"
       x1="9.0752506"
       y1="2.2159534"
       x2="9.0752506"
       y2="13.952041" />
    <clipPath
       clipPathUnits="userSpaceOnUse"
       id="clipPath3632-7">
      <path
         style="fill:#ff00ff;fill-opacity:1;stroke:none;display:inline"
         d="m -20,0 0,16 16,0 0,-16 -16,0 z m 8.09375,2.0625 c 0.173909,-0.017258 0.321577,0 0.5,0 2.967459,0 5.375001,2.4264215 5.375,5.4375 0,2.864578 -2.17034,5.215497 -4.9375,5.4375 l 0,-1.84375 C -9.191791,10.880677 -7.8125,9.3611571 -7.8125,7.5 c 0,-2.0073863 -1.615444,-3.624999 -3.59375,-3.625 -1.86764,0 -3.365967,1.4304651 -3.53125,3.28125 l 1.875,0 -2.90625,4.09375 -2.71875,-4.09375 1.9375,0 c 0.162577,-2.6743762 2.235116,-4.834874 4.84375,-5.09375 z"
         id="path3634-5" />
    </clipPath>
    <linearGradient
       inkscape:collect="always"
       xlink:href="#StandardGradient-3"
       id="linearGradient3999-2"
       gradientUnits="userSpaceOnUse"
       gradientTransform="scale(1.0784122,0.9272892)"
       x1="9.0752506"
       y1="2.2159534"
       x2="9.0752506"
       y2="13.952041" />
    <linearGradient
       inkscape:collect="always"
       xlink:href="#StandardGradient-3"
       id="linearGradient4003-95"
       gradientUnits="userSpaceOnUse"
       gradientTransform="scale(1.0784122,0.9272892)"
       x1="9.0752506"
       y1="2.2159534"
       x2="9.0752506"
       y2="13.952041" />
  </defs>
  <sodipodi:namedview
     id="base"
     pagecolor="#ffffff"
     bordercolor="#666666"
     borderopacity="1.0"
     inkscape:pageopacity="0.0"
     inkscape:pageshadow="2"
     inkscape:zoom="24.632071"
     inkscape:cx="11.813263"
     inkscape:cy="12.178976"
     inkscape:document-units="px"
     inkscape:current-layer="layer1"
     showgrid="false"
     inkscape:window-width="1272"
     inkscape:window-height="951"
     inkscape:window-x="0"
     inkscape:window-y="37"
     inkscape:window-maximized="1" />
  <metadata
     id="metadata7">
    <rdf:RDF>
      <cc:Work
         rdf:about="">
        <dc:format>image/svg+xml</dc:format>
        <dc:type
           rdf:resource="http://purl.org/dc/dcmitype/StillImage" />
        <dc:title></dc:title>
      </cc:Work>
    </rdf:RDF>
  </metadata>
  <g
     inkscape:label="Layer 1"
     inkscape:groupmode="layer"
     id="layer1"
     transform="translate(0,-1027.9943)">
    <g
       id="layer1-3"
       inkscape:label="Layer 1"
       transform="matrix(1.0783034,0,0,1.0779221,-1.0094031,-80.952812)">
      <g
         transform="matrix(1.0849558,0,0,1.047619,-1.1559187,-49.531826)"
         inkscape:label="Layer 1"
         id="layer1-8">
        <g
           transform="matrix(1.0366972,0,0,1.0500225,-453.33054,610.66826)"
           id="layer15">
          <path
             d="m 449,402 c -0.22065,0 -0.44081,0.0113 -0.65625,0.0312 l -0.40625,2.0938 c -0.33446,0.0733 -0.66305,0.17589 -0.96875,0.3125 l -1.5312,-1.4688 c -0.38863,0.23011 -0.72695,0.51408 -1.0625,0.8125 l 0.90625,1.9062 c -0.22242,0.24899 -0.42425,0.5225 -0.59375,0.8125 l -2.0938,-0.28125 c -0.17772,0.40877 -0.30872,0.83637 -0.40625,1.2812 l 1.8438,1 c -0.0171,0.16809 -0.0312,0.3274 -0.0312,0.5 0,0.1726 0.0142,0.33191 0.0312,0.5 l -1.8438,1 c 0.0975,0.44488 0.22853,0.87248 0.40625,1.2812 l 2.0938,-0.28125 c 0.1695,0.29 0.37133,0.56351 0.59375,0.8125 l -0.90625,1.9062 c 0.33555,0.29842 0.67387,0.58239 1.0625,0.8125 l 1.5312,-1.4688 c 0.3057,0.13661 0.63429,0.23916 0.96875,0.3125 l 0.40625,2.0938 c 0.21544,0.02 0.4356,0.0312 0.65625,0.0312 0.22065,0 0.44081,-0.0113 0.65625,-0.0312 l 0.40625,-2.0938 c 0.33446,-0.0733 0.66305,-0.17589 0.96875,-0.3125 l 1.5312,1.4688 c 0.38863,-0.23011 0.72695,-0.51408 1.0625,-0.8125 l -0.90625,-1.9062 c 0.22242,-0.24899 0.42425,-0.5225 0.59375,-0.8125 l 2.0938,0.28125 c 0.17772,-0.40877 0.30872,-0.83637 0.40625,-1.2812 l -1.8438,-1 c 0.0171,-0.16809 0.0312,-0.3274 0.0312,-0.5 0,-0.1726 -0.0142,-0.33191 -0.0312,-0.5 l 1.8438,-1 c -0.0975,-0.44488 -0.22853,-0.87248 -0.40625,-1.2812 l -2.0938,0.28125 c -0.1695,-0.29 -0.37133,-0.56351 -0.59375,-0.8125 l 0.90625,-1.9062 c -0.33555,-0.29842 -0.67387,-0.58239 -1.0625,-0.8125 l -1.5312,1.4688 c -0.3057,-0.13661 -0.63429,-0.23916 -0.96875,-0.3125 l -0.40625,-2.0938 C 449.44081,402.0112 449.22065,402 449,402 z m 0,4 c 1.6568,0 3,1.3432 3,3 0,1.6568 -1.3432,3 -3,3 -1.6568,0 -3,-1.3432 -3,-3 0,-1.6568 1.3432,-3 3,-3 z"
             style="color:#000000;fill:#bebebe"
             id="path35543-6-4"
             inkscape:connector-curvature="0" />
        </g>
      </g>
    </g>
  </g>
</svg>
