<?xml version="1.0" encoding="UTF-8" standalone="no"?>
<!-- Created with Inkscape (http://www.inkscape.org/) -->

<svg
   xmlns:dc="http://purl.org/dc/elements/1.1/"
   xmlns:cc="http://creativecommons.org/ns#"
   xmlns:rdf="http://www.w3.org/1999/02/22-rdf-syntax-ns#"
   xmlns:svg="http://www.w3.org/2000/svg"
   xmlns="http://www.w3.org/2000/svg"
   xmlns:xlink="http://www.w3.org/1999/xlink"
   xmlns:sodipodi="http://sodipodi.sourceforge.net/DTD/sodipodi-0.dtd"
   xmlns:inkscape="http://www.inkscape.org/namespaces/inkscape"
   width="24.09"
   height="24.360001"
   id="svg2"
   version="1.1"
   inkscape:version="0.48.3.1 r9886"
   sodipodi:docname="shutdown-symbolic.svg">
  <defs
     id="defs4">
    <linearGradient
       y2="13.952041"
       x2="9.0752506"
       y1="2.2159534"
       x1="9.0752506"
       gradientTransform="scale(1.0784122,0.9272892)"
       gradientUnits="userSpaceOnUse"
       id="linearGradient4003"
       xlink:href="#StandardGradient"
       inkscape:collect="always" />
    <linearGradient
       y2="13.952041"
       x2="9.0752506"
       y1="2.2159534"
       x1="9.0752506"
       gradientTransform="scale(1.0784122,0.9272892)"
       gradientUnits="userSpaceOnUse"
       id="linearGradient3999"
       xlink:href="#StandardGradient"
       inkscape:collect="always" />
    <clipPath
       id="clipPath3632"
       clipPathUnits="userSpaceOnUse">
      <path
         id="path3634"
         d="m -20,0 0,16 16,0 0,-16 -16,0 z m 8.09375,2.0625 c 0.173909,-0.017258 0.321577,0 0.5,0 2.967459,0 5.375001,2.4264215 5.375,5.4375 0,2.864578 -2.17034,5.215497 -4.9375,5.4375 l 0,-1.84375 C -9.191791,10.880677 -7.8125,9.3611571 -7.8125,7.5 c 0,-2.0073863 -1.615444,-3.624999 -3.59375,-3.625 -1.86764,0 -3.365967,1.4304651 -3.53125,3.28125 l 1.875,0 -2.90625,4.09375 -2.71875,-4.09375 1.9375,0 c 0.162577,-2.6743762 2.235116,-4.834874 4.84375,-5.09375 z"
         style="fill:#ff00ff;fill-opacity:1;stroke:none;display:inline" />
    </clipPath>
    <linearGradient
       y2="13.952041"
       x2="9.0752506"
       y1="2.2159534"
       x1="9.0752506"
       gradientTransform="matrix(1.0784122,0,0,0.9272892,-20,0)"
       gradientUnits="userSpaceOnUse"
       id="linearGradient3625"
       xlink:href="#StandardGradient"
       inkscape:collect="always" />
    <inkscape:perspective
       sodipodi:type="inkscape:persp3d"
       inkscape:vp_x="0 : 0.5 : 1"
       inkscape:vp_y="0 : 1000 : 0"
       inkscape:vp_z="1 : 0.5 : 1"
       inkscape:persp3d-origin="0.5 : 0.33333333 : 1"
       id="perspective3697" />
    <linearGradient
       gradientUnits="userSpaceOnUse"
       y2="13.952041"
       x2="9.0752506"
       y1="2.2159534"
       x1="9.0752506"
       gradientTransform="scale(1.0784122,0.9272892)"
       id="StandardGradient">
      <stop
         id="stop3280"
         offset="0"
         style="stop-color:#000000;stop-opacity:0.86274511;" />
      <stop
         id="stop3282"
         offset="1"
         style="stop-color:#000000;stop-opacity:0.47058824;" />
    </linearGradient>
    <inkscape:perspective
       id="perspective16"
       inkscape:persp3d-origin="8 : 5.3333333 : 1"
       inkscape:vp_z="16 : 8 : 1"
       inkscape:vp_y="0 : 1000 : 0"
       inkscape:vp_x="0 : 8 : 1"
       sodipodi:type="inkscape:persp3d" />
    <inkscape:perspective
       sodipodi:type="inkscape:persp3d"
       inkscape:vp_x="0 : 11 : 1"
       inkscape:vp_y="0 : 1000 : 0"
       inkscape:vp_z="22 : 11 : 1"
       inkscape:persp3d-origin="11 : 7.3333333 : 1"
       id="perspective29" />
    <linearGradient
       id="linearGradient4081">
      <stop
         style="stop-color:#aaaaaa;stop-opacity:1;"
         offset="0"
         id="stop4083" />
      <stop
         style="stop-color:#f0f0f0;stop-opacity:1;"
         offset="1"
         id="stop4085" />
    </linearGradient>
    <linearGradient
       inkscape:collect="always"
       xlink:href="#linearGradient4081"
       id="linearGradient3527"
       gradientUnits="userSpaceOnUse"
       gradientTransform="translate(-39,0)"
       x1="6.8391123"
       y1="16.300354"
       x2="6.8391123"
       y2="6.0528178" />
    <linearGradient
       inkscape:collect="always"
       xlink:href="#linearGradient4081"
       id="linearGradient3538"
       gradientUnits="userSpaceOnUse"
       gradientTransform="translate(-39,0)"
       x1="16.5"
       y1="19.542921"
       x2="16.5"
       y2="2.5" />
    <linearGradient
       inkscape:collect="always"
       xlink:href="#linearGradient4081"
       id="linearGradient3540"
       gradientUnits="userSpaceOnUse"
       gradientTransform="translate(-39,0)"
       x1="14.524625"
       y1="17.41902"
       x2="14.524625"
       y2="4.625" />
    <linearGradient
       inkscape:collect="always"
       xlink:href="#linearGradient4081"
       id="linearGradient3542"
       gradientUnits="userSpaceOnUse"
       gradientTransform="translate(-39,0)"
       x1="10.50519"
       y1="15.28125"
       x2="10.50519"
       y2="6.7458849" />
    <linearGradient
       inkscape:collect="always"
       xlink:href="#linearGradient4081"
       id="linearGradient3266"
       x1="9"
       y1="4.5"
       x2="14"
       y2="4.5"
       gradientUnits="userSpaceOnUse"
       gradientTransform="matrix(0,-1,1,0,6,16)" />
    <linearGradient
       inkscape:collect="always"
       xlink:href="#linearGradient4081"
       id="linearGradient3274"
       x1="11.984375"
       y1="20"
       x2="11.984375"
       y2="7.96875"
       gradientUnits="userSpaceOnUse" />
    <linearGradient
       inkscape:collect="always"
       xlink:href="#linearGradient4081"
       id="linearGradient3280"
       gradientUnits="userSpaceOnUse"
       gradientTransform="matrix(0,-1,1,0,7,16)"
       x1="9"
       y1="4.5"
       x2="14"
       y2="4.5" />
    <linearGradient
       inkscape:collect="always"
       xlink:href="#linearGradient4081"
       id="linearGradient3287"
       gradientUnits="userSpaceOnUse"
       gradientTransform="matrix(0,-1,1,0,7,16)"
       x1="9"
       y1="4.5"
       x2="14"
       y2="4.5" />
    <linearGradient
       inkscape:collect="always"
       xlink:href="#linearGradient4081"
       id="linearGradient3293"
       gradientUnits="userSpaceOnUse"
       x1="11.984375"
       y1="20"
       x2="11.984375"
       y2="7.96875"
       gradientTransform="translate(-1,0)" />
    <linearGradient
       inkscape:collect="always"
       xlink:href="#linearGradient4081"
       id="linearGradient3180"
       x1="-13"
       y1="17.008953"
       x2="-13"
       y2="-0.70032859"
       gradientUnits="userSpaceOnUse" />
    <inkscape:perspective
       id="perspective4374"
       inkscape:persp3d-origin="0.5 : 0.33333333 : 1"
       inkscape:vp_z="1 : 0.5 : 1"
       inkscape:vp_y="0 : 1000 : 0"
       inkscape:vp_x="0 : 0.5 : 1"
       sodipodi:type="inkscape:persp3d" />
    <linearGradient
       inkscape:collect="always"
       xlink:href="#StandardGradient-1"
       id="linearGradient3833-8"
       x1="54"
       y1="3.5"
       x2="59"
       y2="3.5"
       gradientUnits="userSpaceOnUse"
       gradientTransform="translate(-58,53.861161)" />
    <linearGradient
       id="StandardGradient-1"
       gradientTransform="matrix(0.9984539,0,0,0.9984539,-0.0459776,0.05767558)"
       x1="10.710332"
       y1="1.9963325"
       x2="10.710332"
       y2="18.974037"
       gradientUnits="userSpaceOnUse">
      <stop
         style="stop-color:#000000;stop-opacity:0.86274511;"
         offset="0"
         id="stop3277-4" />
      <stop
         style="stop-color:#000000;stop-opacity:0.47058824;"
         offset="1"
         id="stop3279-3" />
    </linearGradient>
    <linearGradient
       y2="3.5"
       x2="59"
       y1="3.5"
       x1="54"
       gradientTransform="translate(-50,53.861161)"
       gradientUnits="userSpaceOnUse"
       id="linearGradient3829-0"
       xlink:href="#SpecificGradient-5"
       inkscape:collect="always" />
    <linearGradient
       id="SpecificGradient-5"
       x1="10.761708"
       y1="3.9999998"
       x2="10.761708"
       y2="18.011395"
       gradientUnits="userSpaceOnUse">
      <stop
         style="stop-color:#a50000;stop-opacity:1;"
         offset="0"
         id="stop3292-8" />
      <stop
         style="stop-color:#e73800;stop-opacity:1;"
         offset="1"
         id="stop3294-0" />
    </linearGradient>
    <linearGradient
       inkscape:collect="always"
       xlink:href="#StandardGradient-1"
       id="linearGradient3664"
       gradientUnits="userSpaceOnUse"
       x1="5"
       y1="1"
       x2="5"
       y2="14"
       gradientTransform="translate(0,1)" />
    <linearGradient
       inkscape:collect="always"
       xlink:href="#StandardGradient-1"
       id="linearGradient3668"
       gradientUnits="userSpaceOnUse"
       gradientTransform="translate(0.8611607,0.9999999)"
       x1="5"
       y1="1"
       x2="5"
       y2="14" />
    <linearGradient
       inkscape:collect="always"
       xlink:href="#StandardGradient-1"
       id="linearGradient3673"
       gradientUnits="userSpaceOnUse"
       x1="5"
       y1="1"
       x2="5"
       y2="14"
       gradientTransform="translate(-29.138839,0.9999999)" />
    <clipPath
       clipPathUnits="userSpaceOnUse"
       id="clipPath3679">
      <path
         style="fill:#ff00ff;fill-opacity:1;stroke:none;display:inline"
         d="m -29.138839,0.9999999 0,16.0000001 16,0 0,-16.0000001 -16,0 z m 7.5,1 1,0 c 0.277,0 0.5,0.223 0.5,0.5 l 0,5 c 0,0.2770001 -0.223,0.5 -0.5,0.5 l -1,0 c -0.277,1e-7 -0.5,-0.223 -0.5,-0.5 l 0,-5 c 0,-0.277 0.223,-0.5 0.5,-0.5 z m -1.5,1.34375 0,2.21875 c -1.193787,0.6923393 -2,1.9590539 -2,3.4375 0,2.2080001 1.792,4.0000001 4,4.0000001 2.208,0 4,-1.792 4,-4.0000001 0,-1.4784459 -0.806213,-2.7451607 -2,-3.4375 l 0,-2.21875 c 2.330779,0.8236389 4,3.0446 4,5.65625 0,3.3120001 -2.688,6.0000001 -6,6.0000001 -3.312,0 -6,-2.688 -6,-6.0000001 0,-2.61165 1.669221,-4.8326111 4,-5.65625 z"
         id="path3681" />
    </clipPath>
    <linearGradient
       inkscape:collect="always"
       xlink:href="#StandardGradient-1"
       id="linearGradient3961"
       gradientUnits="userSpaceOnUse"
       x1="5"
       y1="1"
       x2="5"
       y2="14" />
    <linearGradient
       inkscape:collect="always"
       xlink:href="#StandardGradient-1"
       id="linearGradient3965"
       gradientUnits="userSpaceOnUse"
       x1="5"
       y1="1"
       x2="5"
       y2="14" />
    <linearGradient
       y2="13.952041"
       x2="9.0752506"
       y1="2.2159534"
       x1="9.0752506"
       gradientTransform="scale(1.0784122,0.9272892)"
       gradientUnits="userSpaceOnUse"
       id="linearGradient4003-1"
       xlink:href="#StandardGradient-8"
       inkscape:collect="always" />
    <linearGradient
       y2="13.952041"
       x2="9.0752506"
       y1="2.2159534"
       x1="9.0752506"
       gradientTransform="scale(1.0784122,0.9272892)"
       gradientUnits="userSpaceOnUse"
       id="linearGradient3999-7"
       xlink:href="#StandardGradient-8"
       inkscape:collect="always" />
    <clipPath
       id="clipPath3632-4"
       clipPathUnits="userSpaceOnUse">
      <path
         id="path3634-7"
         d="m -20,0 0,16 16,0 0,-16 -16,0 z m 8.09375,2.0625 c 0.173909,-0.017258 0.321577,0 0.5,0 2.967459,0 5.375001,2.4264215 5.375,5.4375 0,2.864578 -2.17034,5.215497 -4.9375,5.4375 l 0,-1.84375 C -9.191791,10.880677 -7.8125,9.3611571 -7.8125,7.5 c 0,-2.0073863 -1.615444,-3.624999 -3.59375,-3.625 -1.86764,0 -3.365967,1.4304651 -3.53125,3.28125 l 1.875,0 -2.90625,4.09375 -2.71875,-4.09375 1.9375,0 c 0.162577,-2.6743762 2.235116,-4.834874 4.84375,-5.09375 z"
         style="fill:#ff00ff;fill-opacity:1;stroke:none;display:inline" />
    </clipPath>
    <linearGradient
       y2="13.952041"
       x2="9.0752506"
       y1="2.2159534"
       x1="9.0752506"
       gradientTransform="matrix(1.0784122,0,0,0.9272892,-20,0)"
       gradientUnits="userSpaceOnUse"
       id="linearGradient3625-8"
       xlink:href="#StandardGradient-8"
       inkscape:collect="always" />
    <inkscape:perspective
       sodipodi:type="inkscape:persp3d"
       inkscape:vp_x="0 : 0.5 : 1"
       inkscape:vp_y="0 : 1000 : 0"
       inkscape:vp_z="1 : 0.5 : 1"
       inkscape:persp3d-origin="0.5 : 0.33333333 : 1"
       id="perspective3697-3" />
    <linearGradient
       gradientUnits="userSpaceOnUse"
       y2="13.952041"
       x2="9.0752506"
       y1="2.2159534"
       x1="9.0752506"
       gradientTransform="scale(1.0784122,0.9272892)"
       id="StandardGradient-8">
      <stop
         id="stop3280-7"
         offset="0"
         style="stop-color:#000000;stop-opacity:0.86274511;" />
      <stop
         id="stop3282-1"
         offset="1"
         style="stop-color:#000000;stop-opacity:0.47058824;" />
    </linearGradient>
    <inkscape:perspective
       id="perspective16-2"
       inkscape:persp3d-origin="8 : 5.3333333 : 1"
       inkscape:vp_z="16 : 8 : 1"
       inkscape:vp_y="0 : 1000 : 0"
       inkscape:vp_x="0 : 8 : 1"
       sodipodi:type="inkscape:persp3d" />
  </defs>
  <sodipodi:namedview
     id="base"
     pagecolor="#ffffff"
     bordercolor="#666666"
     borderopacity="1.0"
     inkscape:pageopacity="0.0"
     inkscape:pageshadow="2"
     inkscape:zoom="30.336617"
     inkscape:cx="12.045"
     inkscape:cy="12.18"
     inkscape:document-units="px"
     inkscape:current-layer="layer1"
     showgrid="false"
     inkscape:window-width="1276"
     inkscape:window-height="953"
     inkscape:window-x="0"
     inkscape:window-y="37"
     inkscape:window-maximized="1" />
  <metadata
     id="metadata7">
    <rdf:RDF>
      <cc:Work
         rdf:about="">
        <dc:format>image/svg+xml</dc:format>
        <dc:type
           rdf:resource="http://purl.org/dc/dcmitype/StillImage" />
        <dc:title></dc:title>
      </cc:Work>
    </rdf:RDF>
  </metadata>
  <g
     inkscape:label="Layer 1"
     inkscape:groupmode="layer"
     id="layer1"
     transform="translate(0,-1027.9943)">
    <g
       style="display:inline"
       inkscape:label="Arrow"
       id="layer3"
       transform="matrix(1.16975,0,0,1.1396923,2.6351766,1030.8161)">
      <g
         transform="translate(0.02164855,0.51082735)"
         id="g3411"
         style="display:inline">
        <g
           inkscape:label="Icon"
           id="layer1-2"
           style="display:inline"
           transform="translate(-0.8611607,-0.9999999)">
          <path
             inkscape:connector-curvature="0"
             style="fill:#bebebe;fill-opacity:1;fill-rule:nonzero;stroke:none"
             d="M 7.5,1 C 7.223,1 7.0000001,1.223 7,1.5 l 0,5 C 7,6.777 7.2230001,7.0000001 7.5,7 l 1,0 C 8.777,7 9.0000001,6.7770001 9,6.5 l 0,-5 C 9,1.223 8.7770001,0.99999998 8.5,1 l -1,0 z M 6,2.34375 C 3.6692215,3.1673889 2,5.38835 2,8 c 0,3.312 2.6880002,6 6,6 3.312,0 6,-2.688 6,-6 C 14,5.38835 12.330779,3.1673889 10,2.34375 L 10,4.5625 C 11.193787,5.2548393 12,6.5215541 12,8 12,10.208 10.208,12 8,12 5.7920001,12 4,10.208 4,8 4,6.5215539 4.8062133,5.2548393 6,4.5625 L 6,2.34375 z"
             transform="translate(0.8611607,0.9999999)"
             id="path2401" />
        </g>
      </g>
    </g>
  </g>
</svg>
