<?xml version="1.0" encoding="UTF-8" standalone="no"?>
<!-- Created with Inkscape (http://www.inkscape.org/) -->

<svg
   xmlns:dc="http://purl.org/dc/elements/1.1/"
   xmlns:cc="http://creativecommons.org/ns#"
   xmlns:rdf="http://www.w3.org/1999/02/22-rdf-syntax-ns#"
   xmlns:svg="http://www.w3.org/2000/svg"
   xmlns="http://www.w3.org/2000/svg"
   xmlns:xlink="http://www.w3.org/1999/xlink"
   xmlns:sodipodi="http://sodipodi.sourceforge.net/DTD/sodipodi-0.dtd"
   xmlns:inkscape="http://www.inkscape.org/namespaces/inkscape"
   width="24.09"
   height="24.360001"
   id="svg2"
   version="1.1"
   inkscape:version="0.48.4 r9939"
   sodipodi:docname="user-logout-symbolic.svg">
  <defs
     id="defs4">
    <linearGradient
       y2="13.952041"
       x2="9.0752506"
       y1="2.2159534"
       x1="9.0752506"
       gradientTransform="scale(1.0784122,0.9272892)"
       gradientUnits="userSpaceOnUse"
       id="linearGradient4003"
       xlink:href="#StandardGradient"
       inkscape:collect="always" />
    <linearGradient
       y2="13.952041"
       x2="9.0752506"
       y1="2.2159534"
       x1="9.0752506"
       gradientTransform="scale(1.0784122,0.9272892)"
       gradientUnits="userSpaceOnUse"
       id="linearGradient3999"
       xlink:href="#StandardGradient"
       inkscape:collect="always" />
    <clipPath
       id="clipPath3632"
       clipPathUnits="userSpaceOnUse">
      <path
         id="path3634"
         d="m -20,0 0,16 16,0 0,-16 -16,0 z m 8.09375,2.0625 c 0.173909,-0.017258 0.321577,0 0.5,0 2.967459,0 5.375001,2.4264215 5.375,5.4375 0,2.864578 -2.17034,5.215497 -4.9375,5.4375 l 0,-1.84375 C -9.191791,10.880677 -7.8125,9.3611571 -7.8125,7.5 c 0,-2.0073863 -1.615444,-3.624999 -3.59375,-3.625 -1.86764,0 -3.365967,1.4304651 -3.53125,3.28125 l 1.875,0 -2.90625,4.09375 -2.71875,-4.09375 1.9375,0 c 0.162577,-2.6743762 2.235116,-4.834874 4.84375,-5.09375 z"
         style="fill:#ff00ff;fill-opacity:1;stroke:none;display:inline" />
    </clipPath>
    <linearGradient
       y2="13.952041"
       x2="9.0752506"
       y1="2.2159534"
       x1="9.0752506"
       gradientTransform="matrix(1.0784122,0,0,0.9272892,-20,0)"
       gradientUnits="userSpaceOnUse"
       id="linearGradient3625"
       xlink:href="#StandardGradient"
       inkscape:collect="always" />
    <inkscape:perspective
       sodipodi:type="inkscape:persp3d"
       inkscape:vp_x="0 : 0.5 : 1"
       inkscape:vp_y="0 : 1000 : 0"
       inkscape:vp_z="1 : 0.5 : 1"
       inkscape:persp3d-origin="0.5 : 0.33333333 : 1"
       id="perspective3697" />
    <linearGradient
       gradientUnits="userSpaceOnUse"
       y2="13.952041"
       x2="9.0752506"
       y1="2.2159534"
       x1="9.0752506"
       gradientTransform="scale(1.0784122,0.9272892)"
       id="StandardGradient">
      <stop
         id="stop3280"
         offset="0"
         style="stop-color:#000000;stop-opacity:0.86274511;" />
      <stop
         id="stop3282"
         offset="1"
         style="stop-color:#000000;stop-opacity:0.47058824;" />
    </linearGradient>
    <inkscape:perspective
       id="perspective16"
       inkscape:persp3d-origin="8 : 5.3333333 : 1"
       inkscape:vp_z="16 : 8 : 1"
       inkscape:vp_y="0 : 1000 : 0"
       inkscape:vp_x="0 : 8 : 1"
       sodipodi:type="inkscape:persp3d" />
  </defs>
  <sodipodi:namedview
     id="base"
     pagecolor="#ffffff"
     bordercolor="#666666"
     borderopacity="1.0"
     inkscape:pageopacity="0.0"
     inkscape:pageshadow="2"
     inkscape:zoom="30.336617"
     inkscape:cx="11.814256"
     inkscape:cy="12.18"
     inkscape:document-units="px"
     inkscape:current-layer="layer1"
     showgrid="false"
     inkscape:window-width="1272"
     inkscape:window-height="961"
     inkscape:window-x="0"
     inkscape:window-y="27"
     inkscape:window-maximized="1" />
  <metadata
     id="metadata7">
    <rdf:RDF>
      <cc:Work
         rdf:about="">
        <dc:format>image/svg+xml</dc:format>
        <dc:type
           rdf:resource="http://purl.org/dc/dcmitype/StillImage" />
        <dc:title></dc:title>
      </cc:Work>
    </rdf:RDF>
  </metadata>
  <g
     inkscape:label="Layer 1"
     inkscape:groupmode="layer"
     id="layer1"
     transform="translate(0,-1027.9943)">
    <g
       transform="matrix(1.37,0,0,1.2615385,-57.387781,604.12575)"
       id="layer9">
      <path
         d="m 47,345 c -1.5545,0.11593 -3,1.4148 -3,3 v 4 h 10 v -4 c 0,-1.5852 -1.4455,-2.8841 -3,-3 v 1 h -4 z"
         style="color:#bebebe;fill:#bebebe"
         id="rect20599"
         inkscape:connector-curvature="0" />
      <path
         transform="matrix(1.2,0,0,1.2,-10.4,-69)"
         d="m 52,342.5 a 2.5,2.5 0 1 1 -5,0 2.5,2.5 0 1 1 5,0 z"
         style="color:#bebebe;fill:#bebebe"
         id="path20580"
         inkscape:connector-curvature="0" />
    </g>
    <g
       transform="matrix(0.9000127,0,0,0.72727603,-276.0402,575.47381)"
       id="layer12">
      <g
         transform="translate(200,108)"
         id="use43045">
        <path
           d="m 125.03,520 h 1 c 0.0104,-1.2e-4 0.0208,-4.6e-4 0.0313,0 0.25495,0.0112 0.50987,0.12858 0.6875,0.3125 l 5.2812,5.2188 -5.2812,5.1875 c -0.19,0.19 -0.45,0.28 -0.72,0.28 h -1 v -1 c 0,-0.26529 0.0931,-0.53058 0.28125,-0.71875 l 3.8125,-3.75 -3.8125,-3.7812 c -0.21074,-0.19463 -0.30316,-0.46925 -0.28125,-0.75 v -1 z"
           style="text-indent:0;text-transform:none;block-progression:tb;color:#bebebe;fill:#bebebe;enable-background:new"
           id="path4421"
           inkscape:connector-curvature="0" />
      </g>
    </g>
  </g>
</svg>
