<svg height="16" width="16" xmlns="http://www.w3.org/2000/svg"><path d="m7.998497 6.0000015c-.712281 1.7459936-1.141889 2.8880795-1.93492 4.5821725.486227.515304 1.083048 1.115401 2.052282 1.793154-1.042021-.428706-1.823812-.752633-2.354993-1.199272-1.014929 2.117406-2.534028 5.027074-5.760853 10.82394 2.536175-1.463903 4.502176-2.366418 6.334393-2.710793-.07867-.338321-.123407-.704283-.120369-1.086123l.003-.08123c.04024-1.624556.885494-2.873841 1.886774-2.789017 1.001283.08482 1.779567 1.471339 1.739325 3.0959-.0076.305687-.04206.599759-.102312.872506 1.812323.354456 3.757299 1.254661 6.259163 2.698759-.493319-.908064-.933646-1.726616-1.354148-2.506204-.662352-.513272-1.353218-1.181297-2.762454-1.904474.968625.251642 1.591151.453235 2.13174.777755-4.275318-7.958417-4.550525-8.9271915-6.016628-12.3670735z" fill="#808080" fill-rule="evenodd" transform="matrix(.87500142 0 0 .87500019 .999989 -4.250003)"/></svg>