<svg height="16" width="16" xmlns="http://www.w3.org/2000/svg"><g fill="#808080" transform="matrix(1 0 0 1.0228374 -.015 -.326531)"><path d="m8.182 1.084a6.99 6.99 0 0 0 -6.248 3.492c-1.929 3.343-.776 7.63 2.57 9.563s7.634.792 9.562-2.551c1.929-3.343.776-7.633-2.57-9.567a6.98 6.98 0 0 0 -3.314-.937zm-.182.996a6 6 0 0 1 6 6 6 6 0 0 1 -6 6 6 6 0 0 1 -6-6 6 6 0 0 1 6-6z"/><path d="m9.322.31923989h-2.632v1.42776011c.8680889-.1782665 1.7638748-.1765648 2.632.005zm-5.385.87176011-2.006 1.705.988 1.178c.5492234-.6959842 1.2357284-1.2715321 2.017-1.691zm8.128.013-.993 1.183c.05711.029159.113779.059163.17.09.710839.4131767 1.336946.9574991 1.845 1.604l1.006-1.198zm-11.61 4.217-.44 2.595 1.515.267c-.0272791-.8863755.1275796-1.7685599.455-2.592zm15.086.003-1.523.268c.330112.8232277.488031 1.7050544.464 2.591l1.533-.27zm-13.683 4.694-1.351.78 1.33 2.272 1.339-.773c-.5902828-.66195-1.0388467-1.437578-1.318-2.279zm12.301.003c-.135895.422294-.314834.829429-.534 1.215-.220814.382174-.480162.740704-.774 1.07l1.338.772 1.302-2.288zm-9.557 3.472-.534 1.469 2.48.884.525-1.445c-.8110387-.118858-1.5925002-.390317-2.303-.8-.056549-.035137-.1125557-.071142-.168-.108zm6.814.015c-.754505.465657-1.5968917.771299-2.475.898l.53 1.456 2.468-.916z"/><path d="m7.648 3.094a4.989 4.989 0 0 0 -3.982 2.482 5.013 5.013 0 0 0 1.836 6.834 5.002 5.002 0 0 0 6.83-1.826 5.01 5.01 0 0 0 -1.836-6.832 4.976 4.976 0 0 0 -2.848-.658zm.352.986a4 4 0 0 1 4 4 4 4 0 0 1 -4 4 4 4 0 0 1 -4-4 4 4 0 0 1 4-4z"/></g></svg>