<svg height="16" width="16" xmlns="http://www.w3.org/2000/svg"><path d="m11.570312 1.9628906c-1.171058-.0614164-2.1785384.6183063-3.1035151 1.140625a.13191028.13191028 0 0 0 -.00781.00391c-.9442937.6122738-1.7751669 1.4448493-2.2246119 2.5058556-1.0619593 1.2791045-1.2855704 3.0081626-1.1777344 4.5839848l-.00195-.01172c-.042458 2.166222.6859027 4.361699 2.09375 6.025391 1.3431688 1.663241 3.3598675 2.937607 5.5703125 2.921874a.13227241.13227241 0 0 0 .02148-.263671c-1.0217471-.173883-1.9123701-.791606-2.7832019-1.378906-.6311256-.634139-1.3613251-1.148121-1.8125-1.871093l-.00195-.002c-.3999917-.652302-.6293347-1.418857-.8925812-2.162063a.13191028.13191028 0 0 0 -.029297-.04492c-.6488843-.693775-1.0363691-1.588004-.9960936-2.529299a.13191028.13191028 0 0 0 0-.02148c-.2045175-1.7298473.2880676-3.5701299 1.4316406-4.890629.8362535-.551605 1.5596114-1.2385376 2.455078-1.5957031a.13191028.13191028 0 0 0 .02344-.013672c.901248-.59737 2.023945-.7355746 3.099609-.6660156 1.936667.2423447 3.634626 1.9659737 3.822266 3.9121094a.13191028.13191028 0 0 0 .01172.044922c.104078.2200286.07408.4883633.03125.78125-.03995.2731798-.08155.564875.01758.8417969-.199727 1.9494784-2.40087 3.5089584-4.291021 2.9140624-.775813-.277847-1.400695-.954333-1.707031-1.740234-.306014-.7850732-.295387-1.6670115.175781-2.3710941l.002-.00195c.709231-.9859117 2.234764-1.3384943 3.253859-.6523469a.13191028.13191028 0 0 0 .183594-.1835938c-.365059-.5447741-1.11854-.7942323-1.765625-.7773437h-.0039c-1.055034.00476-2.000849.7067707-2.427735 1.640625-.7958829 1.4381151-.275887 3.4203155 1.171875 4.2363285.0067.01207.0082.01669.01367.02734-.05525-.02517-.113727-.05293-.167968-.08398-.03595-.02058-.06972-.03944-.0957-.05469-.01299-.0076-.02281-.01573-.0332-.02148-.0104-.0058-.01152-.0081-.04101-.01758a.13191028.13191028 0 0 0 -.05274-.0059c-.04674-.03608-.08232-.06309-.134765-.103516-.04816-.03713-.09432-.07319-.134766-.101563-.02022-.01419-.03838-.02625-.05664-.03711-.01826-.01085-.02999-.02236-.07226-.03125-.0053-.0011-.0103-.0014-.01758-.002-.0073-.000603-.02675-.000061-.02734 0-.000599.000061-.03468.0096-.03516.0098-.000472.000184-.04263.02508-.04297.02539-.000341.000311-.03104.04253-.03125.04297-.000208.000441-.01165.04044-.01172.04102-.00007.000574-.000838.02271 0 .03125.000839.0085.0024.01545.0039.02148.01212.04829.02571.05664.04102.07813.03062.04296.07662.09801.152344.181641a.13191028.13191028 0 0 0 .0059.0078c.586899.560151 1.354314.852083 2.148438.96875.006.000876.01161.003.01758.0039.0012.000285.0027-.000282.0039 0 .366212.08291.777901.103509 1.066406.0625l-.05078-.259765c-.274065.06833-.564349.0023-.878906-.04883 1.655426.163085 3.406202-.638421 4.24414-2.09961l-.01563.01953c.494093-.566171.620367-1.3247893.923829-1.898438a.13191028.13191028 0 0 0 .01367-.048828c.08711-.8086892.0084-1.6276833-.285156-2.3945313-.04922-.1674135-.02912-.255371-.01563-.2773437.01349-.021973.01663-.023674.06445-.011719.09566.02391.265927.1791059.25586.4140625a.13191028.13191028 0 0 0 0 .025391c.01765.1204853.03131.2024765.04102.2558594.0049.026692.0091.044934.01367.0625.0023.00878.000939.015433.01172.037109.0027.00542.01346.021209.01367.021484.000105.0001376.01748.019443.01758.019531.000099.0000883.03702.021445.03711.021484.000093.0000393.06632.00977.06641.00977.000087-.0000093.06242-.02338.0625-.023437.000081-.0000574.03118-.031145.03125-.03125.000074-.000105.0136-.023285.01367-.023437.000136-.0003046.0065-.019417.0078-.025391.0013-.00597.0015-.00999.002-.013672.00095-.00737.0018-.012966.002-.017578.000357-.00922.000254-.016827 0-.025391-.000507-.017127-.0021-.03645-.0039-.060547-.0036-.048193-.0099-.1118168-.01758-.1855469-.03099-.2948536-.084611-.7299898-.134893-.9179021-.299841-1.3094635-1.337946-2.2832888-2.435547-2.9238281a.13191028.13191028 0 0 0 -.0059-.00391c-.841535-.4396917-1.801875-.5050875-2.648397-.7597619-.349481-.0995902-.690087-.0950434-1.011718-.1015625-.321632-.0065191-.623765-.0226622-.91211-.1425782a.13191028.13191028 0 0 0 -.04297-.00977z" fill="#808080" transform="matrix(.87264778 0 0 .81517427 -2.391322 -.596933)"/></svg>