<svg height="16" width="16" xmlns="http://www.w3.org/2000/svg"><g fill="#808080"><path d="m7.9999998-.00000053c-4.418278 0-7.9999998 3.58172203-7.9999998 7.99999993v5.0000006c0 3 0 3 3 3h4.9999998c4.4182792 0 8.0000022-3.581722 8.0000022-8.0000006 0-4.4182779-3.581723-7.99999993-8.0000022-7.99999993zm.0000002 1.00000003c3.85 0 7 3.15 7 7 0 3.8500005-3.15 7.0000005-7 7.0000005h-5c-2.15 0-2 .15-2-2v-5.0000005c0-3.85 3.15-7 7-7z"/><path d="m9.527907 4c.68882.00219 1.312216.2819652 1.764208.7333347l-.712281.6932019-1.051927 2.5734634v1h-2.527907l.027907-2.5c0-1.375 1.125-2.5 2.5-2.5zm0 1c-.834 0-1.5.666-1.5 1.5l-.027907 1.5h1.527907l1.051927-2.5734634c-.269878-.2644221-.6404554-.4265366-1.051927-.4265366z"/><path d="m5.5000003 7.999993 2.4999997.000007.0000003 2.499993c0 1.375-1.125 2.499999-2.5 2.499999zm0 1v3c.834 0 1.5-.666 1.5-1.5l-.0000003-1.499993z"/><g fill-opacity=".501961"><path d="m5.5000003 7.999993v4.999999c-1.375 0-2.5-1.124999-2.5-2.499999s1.125-2.5 2.5-2.5zm0 1c-.834 0-1.5.666-1.5 1.5s.666 1.5 1.5 1.5z"/><path d="m9.527907 8.999999c1.375 0 2.5-1.124999 2.5-2.499999 0-.6929369-.27635-1.3127037-.735792-1.7666653l-.712281.6932019-1.051927 2.5734634zm1.051927-3.5734624c.278998.2717361.448073.6493241.448073 1.0734634 0 .834-.666 1.5-1.5 1.5z"/></g></g></svg>