<svg height="16" width="16" xmlns="http://www.w3.org/2000/svg"><g fill="#808080"><path d="m7.6666666 3.1206936c-.1666667-.1609241-.1666667-.1609241-.3333334 0-.1666666.1609237-.8076922.7331733-.8076922.7331733-.051282.058454-.025641.1461336.076923.1461336l1.7948717-.0000001c.1025643 0 .1282049-.08768.076924-.1461337 0 0-.641026-.5722494-.8076931-.7331731z" stroke-width=".110613"/><g transform="translate(-.599999 .300001)"><path d="m8.5999986 3.699999.0000004 3.1c.0000001 1-.1.9.4 1.4.5807023.6 1.799771 1.6997698 1.799771 1.6997698l-.699999.7000012s-1.6717707-1.5342702-2.0857707-1.9672702-.3917806-.4332469-.414-1.433l-.0000011-3.4995008z" fill-rule="evenodd" stroke-width="1.005434"/><path d="m11.155741 11.227775c.316489-.0055.316489-.0055.322037-.322036.0055-.316488.07199-1.4886447.07199-1.4886447-.0069-.1060167-.116409-.1659533-.215497-.066865l-1.73404 1.7340417c-.09909.09909-.03915.208569.06686.215498 0 0 1.172158-.06644 1.488646-.07199z" stroke-width=".151128"/></g><path d="m2.3940771 2.3377853-1.6103707-.1377855c-.09292177.6599909-.16269749 1.3230671-.2091976 1.9879959-.0448968.6828323-.0697328 1.3541413-.074509 2.012004 1.2042706-.5698546 2.3730805-1.2125685 3.4999999-1.9246091v-.000961l-.7940779-1.4122153c-.1201613-.6982283-.1201613-.6982283-.8118447-.524429z" stroke-width=".957808"/><path d="m8-.0000001c-2.5627337 0-4.8440206 1.2050156-6.3081634 3.0793491l-.6918368 4.9206503-1 .000001c0 4.4182777 3.5817218 7.9999997 8.0000002 7.9999997 4.418279 0 8.000002-3.581722 8.000002-7.9999997 0-4.4182783-3.581723-8.0000004-8.000002-8.0000004zm0 1.0000001c3.85 0 7 3.15 7 7.0000003 0 3.8500007-3.15 7.0000007-7 7.0000007-3.8500002 0-7.0000002-3.15-7.0000002-7.0000007l.6918368-4.9206513 1.0760811.2828478c1.2847838-1.4468782 3.156731-2.3621968 5.2320823-2.3621968z"/></g></svg>