<svg height="16" width="16" xmlns="http://www.w3.org/2000/svg"><g fill="#808080"><path d="m-.18285715 17.771429s4.65210005-.398798 5.39187295-.315078c1.0819976.12245 1.6754223.165045 2.3888889.111111 1.6248137-.122839 2.6980443-.390023 3.8888883-.972222.622357-.304278.75428-.441734.888889-.805555.128345-.346889.176553-.66667.111111-.66667-.02316 0-.228013.07903-.472222.194444-.91637.433033-1.718167.648427-2.4166666.611112-.726129-.03884-1.8941641-.460212-3.3055552-1.138889l-.6666667-.305556-.5-1.25.4722222.305556c.8058908.535139 2.1223423 1.165456 2.9166667 1.416666 1.213505.38377 2.1617316.331091 3.1388886-.166666.344419-.175445 1-.605362 1-.666667 0-.11556-.335437-1.240241-.527778-1.75-.480977-1.274735-.818449-1.705215-1.611111-2.083333-.8800196-.4197906-1.8557126-.7046866-3.6388885-1.1111106-.8525351-.18102-1.6903159-.3643338-2.5555555-.4722227l-.027778 1.0555557c-.5658376-.17597-3.83520615-.672889-3.83520615-.672889s-1.48571455 1.9395556-1.48571425 4.9109846c.0000002 2.285714.84571425 3.771429.84571425 3.771429zm9.41965055-6.620636c.582598-.01235 1.1375696.370924 1.3055556 1.027778.08462.330913.05789.565591-.111111.916666-.247073.513212-.7938426.791735-1.3888886.694445-.419621-.0686-.78233-.339195-.972222-.75-.231294-.500351-.123011-1.165041.277777-1.527778.2625-.237586.583712-.354729.888889-.361111zm.305556.694444c-.464926 0-.756997.341457-.5.583334.208457.196185.556395.224873.833333.08333.1793486-.09167.2407466-.231871.1944446-.416667-.03408-.135987-.3015516-.25-.5277776-.25z" transform="matrix(.875 0 0 .875 1 -4.25)"/><path d="m7.9999998-.00000033c-4.418278 0-7.9999998 3.58172203-7.9999998 7.99999993 0 4.4182784 3.5817218 8.0000004 7.9999998 8.0000004 4.4182792 0 8.0000022-3.581722 8.0000022-8.0000004 0-4.4182779-3.581723-7.99999993-8.0000022-7.99999993zm.0000002 1.00000003c3.85 0 7 3.15 7 7 0 3.8500003-3.15 7.0000003-7 7.0000003s-7.00000003-3.15-7.00000003-7.0000003c0-3.85 3.15000003-7 7.00000003-7z"/></g></svg>