<svg height="16" width="16" xmlns="http://www.w3.org/2000/svg"><g fill="#808080" transform="matrix(.93325474 0 0 1.1017549 .533962 -1.20351)"><path d="m8.102 1a7.003 7.003 0 0 0 -7.102 7 7.003 7.003 0 0 0 4.895 6.676 7.005 7.005 0 0 0 7.84-2.66l.287-.41-.82-.575-.288.41a5.996 5.996 0 0 1 -6.719 2.282 5.996 5.996 0 0 1 -4.195-5.723 5.996 5.996 0 0 1 4.195-5.723 5.996 5.996 0 0 1 6.72 2.282l.286.41.82-.574-.287-.41a7.006 7.006 0 0 0 -5.632-2.985z" transform="matrix(1.0697085 0 0 .90764289 -.57034 1.09288)"/><path d="m2.875775 8.3443475-1.59481-.1363591c-.092024.6531582-.1611254 1.3093697-.2071762 1.9674146-.044463.675763-.069059 1.340122-.073789 1.991174 1.1926341-.563955 2.3501498-1.200015 3.4661801-1.904684v-.000951l-.7864049-1.3975949c-.1190002-.6909996-.1190002-.6909996-.804-.5189996z" stroke-width=".948223" transform="matrix(-1.0819737 0 0 .91713788 16.582605 -3.712572)"/></g></svg>