<?xml version="1.0" encoding="UTF-8" standalone="no"?>
<!-- Created with Inkscape (http://www.inkscape.org/) -->

<svg
   xmlns:dc="http://purl.org/dc/elements/1.1/"
   xmlns:cc="http://creativecommons.org/ns#"
   xmlns:rdf="http://www.w3.org/1999/02/22-rdf-syntax-ns#"
   xmlns:svg="http://www.w3.org/2000/svg"
   xmlns="http://www.w3.org/2000/svg"
   xmlns:sodipodi="http://sodipodi.sourceforge.net/DTD/sodipodi-0.dtd"
   xmlns:inkscape="http://www.inkscape.org/namespaces/inkscape"
   id="svg7384"
   height="16.024"
   width="16"
   version="1.1"
   inkscape:version="0.91 r13725"
   sodipodi:docname="shutdown-symbolic.svg">
  <defs
     id="defs10" />
  <sodipodi:namedview
     pagecolor="#ffffff"
     bordercolor="#666666"
     borderopacity="1"
     objecttolerance="10"
     gridtolerance="10"
     guidetolerance="10"
     inkscape:pageopacity="0"
     inkscape:pageshadow="2"
     inkscape:window-width="1920"
     inkscape:window-height="996"
     id="namedview8"
     showgrid="false"
     inkscape:zoom="50.549176"
     inkscape:cx="8"
     inkscape:cy="8.0120001"
     inkscape:window-x="0"
     inkscape:window-y="41"
     inkscape:window-maximized="1"
     inkscape:current-layer="svg7384" />
  <metadata
     id="metadata90">
    <rdf:RDF>
      <cc:Work
         rdf:about="">
        <dc:format>image/svg+xml</dc:format>
        <dc:type
           rdf:resource="http://purl.org/dc/dcmitype/StillImage" />
        <dc:title>Gnome Symbolic Icon Theme</dc:title>
      </cc:Work>
    </rdf:RDF>
  </metadata>
  <title
     id="title9167">Gnome Symbolic Icon Theme</title>
  <g
     id="layer12"
     transform="matrix(1.1426126,0,0,1.1409596,-115.40218,-783.78945)">
    <path
       id="path3869-2"
       style="color:#000000;text-indent:0;text-transform:none;block-progression:tb;fill:#bebebe"
       d="m 105.0375,688.74235 a 0.93748142,0.92950362 0 0 0 -0.32638,0.12446 c -0.98755,0.56655 -1.81068,1.36238 -2.385,2.33992 -1.81837,3.09501 -0.76155,7.10863 2.35998,8.91151 3.12152,1.80289 7.16953,0.75508 8.98781,-2.33993 1.81837,-3.09499 0.76155,-7.10862 -2.35997,-8.9115 a 0.94510452,0.93713455 0 1 0 -0.954,1.61804 c 2.24596,1.29724 2.99044,4.12069 1.68206,6.34761 -1.30837,2.22692 -4.15593,2.96499 -6.402,1.66776 -2.23631,-1.29167 -2.99231,-4.10025 -1.70718,-6.32272 l 0.0252,-0.0249 c 0.41024,-0.69826 1.00171,-1.28794 1.70718,-1.69265 a 0.93748142,0.92950362 0 0 0 -0.62764,-1.71757 z"
       inkscape:connector-curvature="0" />
    <path
       id="path4710"
       style="color:#000000;text-indent:0;text-transform:none;block-progression:tb;fill:#bebebe"
       d="m 107.78,687.00157 a 1.0001,0.99628169 0 0 0 -0.78,0.99618 l 0,4.98091 a 1.0001,0.99628169 0 1 0 2,0 l 0,-4.98091 a 1.0001,0.99628169 0 0 0 -1.2188,-0.99618 z"
       inkscape:connector-curvature="0" />
  </g>
</svg>
