<?xml version="1.0" encoding="UTF-8" standalone="no"?>
<!-- Created with Inkscape (http://www.inkscape.org/) -->

<svg
   xmlns:dc="http://purl.org/dc/elements/1.1/"
   xmlns:cc="http://creativecommons.org/ns#"
   xmlns:rdf="http://www.w3.org/1999/02/22-rdf-syntax-ns#"
   xmlns:svg="http://www.w3.org/2000/svg"
   xmlns="http://www.w3.org/2000/svg"
   xmlns:xlink="http://www.w3.org/1999/xlink"
   xmlns:sodipodi="http://sodipodi.sourceforge.net/DTD/sodipodi-0.dtd"
   xmlns:inkscape="http://www.inkscape.org/namespaces/inkscape"
   width="16"
   height="16"
   id="svg2"
   sodipodi:version="0.32"
   inkscape:version="0.92+devel 15687 custom"
   version="1.0"
   sodipodi:docname="distributor-logo-symbolic.svg"
   inkscape:output_extension="org.inkscape.output.svg.inkscape"
   inkscape:export-filename="/home/matt/.icons/Sirocco/scalable/mimetypes/text-plain.png"
   inkscape:export-xdpi="90"
   inkscape:export-ydpi="90"
   sodipodi:modified="true"
   style="display:inline">
  <sodipodi:namedview
     id="base"
     pagecolor="#ffffff"
     bordercolor="#666666"
     borderopacity="1.0"
     inkscape:pageopacity="0.0"
     inkscape:pageshadow="2"
     inkscape:zoom="47.22656"
     inkscape:cx="8.5333338"
     inkscape:cy="8.5333338"
     inkscape:document-units="px"
     inkscape:current-layer="layer1"
     width="128px"
     height="128px"
     inkscape:showpageshadow="false"
     inkscape:window-width="1920"
     inkscape:window-height="998"
     inkscape:window-x="0"
     inkscape:window-y="45"
     showguides="true"
     inkscape:guide-bbox="true"
     showgrid="true"
     inkscape:window-maximized="1"
     inkscape:document-rotation="0">
    <sodipodi:guide
       id="guide2226"
       position="34.813223,125.865"
       orientation="horizontal"
       inkscape:locked="false" />
    <sodipodi:guide
       id="guide2230"
       position="117.33333,61.229167"
       orientation="vertical"
       inkscape:locked="false" />
    <sodipodi:guide
       id="guide2232"
       position="0,36.011638"
       orientation="horizontal"
       inkscape:locked="false" />
    <sodipodi:guide
       id="guide2231"
       position="0,49.893009"
       orientation="horizontal"
       inkscape:locked="false" />
    <inkscape:grid
       enabled="true"
       visible="true"
       id="grid3231"
       type="xygrid"
       originx="0"
       originy="0"
       spacingx="1"
       spacingy="1" />
    <sodipodi:guide
       orientation="1,0"
       position="106.66667,72.133333"
       id="guide2713"
       inkscape:locked="false" />
  </sodipodi:namedview>
  <defs
     id="defs4">
    <linearGradient
       inkscape:collect="always"
       xlink:href="#StandardGradient"
       id="linearGradient2428"
       gradientUnits="userSpaceOnUse"
       gradientTransform="matrix(0.9247229,0,0,1.0872097,10.939944,-2.0023588)"
       x1="11.998966"
       y1="3.6813121"
       x2="11.998966"
       y2="16.529612" />
    <inkscape:perspective
       sodipodi:type="inkscape:persp3d"
       inkscape:vp_x="0 : 11.733333 : 1"
       inkscape:vp_y="0 : 1066.6667 : 0"
       inkscape:vp_z="23.466667 : 11.733333 : 1"
       inkscape:persp3d-origin="11.733333 : 7.8222222 : 1"
       id="perspective19" />
    <linearGradient
       id="StandardGradient"
       gradientTransform="scale(0.9219544,1.0846523)"
       x1="11.998966"
       y1="0.92195445"
       x2="11.998966"
       y2="19.387045"
       gradientUnits="userSpaceOnUse">
      <stop
         style="stop-color:#000000;stop-opacity:0.86274511;"
         offset="0"
         id="stop3283" />
      <stop
         style="stop-color:#000000;stop-opacity:0.47058824;"
         offset="1"
         id="stop2651" />
    </linearGradient>
    <linearGradient
       inkscape:collect="always"
       xlink:href="#StandardGradient"
       id="linearGradient2549"
       gradientUnits="userSpaceOnUse"
       gradientTransform="matrix(0.9247229,0,0,1.0872097,-2.0600562,0.9976422)"
       x1="11.998966"
       y1="0.92195445"
       x2="11.998966"
       y2="17.478098" />
    <linearGradient
       inkscape:collect="always"
       xlink:href="#StandardGradient"
       id="linearGradient2418"
       gradientUnits="userSpaceOnUse"
       gradientTransform="matrix(0.9247229,0,0,1.0872097,-4.0600562,-3.0023583)"
       x1="11.998966"
       y1="0.92195445"
       x2="11.998966"
       y2="17.478098" />
    <linearGradient
       inkscape:collect="always"
       xlink:href="#StandardGradient"
       id="linearGradient2422"
       gradientUnits="userSpaceOnUse"
       gradientTransform="matrix(0.9247229,0,0,1.0872097,-5.0600562,-1.0023583)"
       x1="11.998966"
       y1="0.92195445"
       x2="11.998966"
       y2="17.478098" />
    <linearGradient
       inkscape:collect="always"
       xlink:href="#StandardGradient"
       id="linearGradient2403"
       gradientUnits="userSpaceOnUse"
       gradientTransform="matrix(0.9247229,0,0,1.0872097,-4.0600562,-3.0023583)"
       x1="11.998966"
       y1="0.92195445"
       x2="11.998966"
       y2="17.478098" />
    <linearGradient
       inkscape:collect="always"
       xlink:href="#StandardGradient"
       id="linearGradient2406"
       gradientUnits="userSpaceOnUse"
       gradientTransform="matrix(0.9247229,0,0,1.0872097,-4.0600562,-3.0023583)"
       x1="11.998966"
       y1="0.92195445"
       x2="11.998966"
       y2="17.478098" />
    <linearGradient
       inkscape:collect="always"
       xlink:href="#StandardGradient"
       id="linearGradient2409"
       gradientUnits="userSpaceOnUse"
       gradientTransform="matrix(0.9247229,0,0,1.0872097,-6.0600562,-2.0023583)"
       x1="11.998966"
       y1="3.6800685"
       x2="11.998966"
       y2="15.638639" />
    <linearGradient
       inkscape:collect="always"
       xlink:href="#StandardGradient"
       id="linearGradient2416"
       gradientUnits="userSpaceOnUse"
       gradientTransform="matrix(0.9247229,0,0,1.0872097,-6.0600562,-2.0023583)"
       x1="11.998966"
       y1="2.7615263"
       x2="11.998966"
       y2="15.638639" />
    <linearGradient
       inkscape:collect="always"
       xlink:href="#StandardGradient"
       id="linearGradient2529"
       gradientUnits="userSpaceOnUse"
       gradientTransform="matrix(0.9247229,0,0,1.0872097,-4.0418814,0.9976412)"
       x1="11.998966"
       y1="3.6813121"
       x2="11.998966"
       y2="16.529612" />
    <linearGradient
       inkscape:collect="always"
       xlink:href="#StandardGradient"
       id="linearGradient2539"
       gradientUnits="userSpaceOnUse"
       gradientTransform="matrix(0.9247229,0,0,1.0872097,-6.0600562,-2.0023583)"
       x1="11.998966"
       y1="2.7615263"
       x2="11.998966"
       y2="15.638639" />
    <linearGradient
       inkscape:collect="always"
       xlink:href="#StandardGradient"
       id="linearGradient2542"
       gradientUnits="userSpaceOnUse"
       gradientTransform="matrix(0.9247229,0,0,1.0872097,-6.0600562,-2.0023583)"
       x1="11.998966"
       y1="2.7615263"
       x2="11.998966"
       y2="15.638639" />
    <linearGradient
       inkscape:collect="always"
       xlink:href="#StandardGradient"
       id="linearGradient2412"
       gradientUnits="userSpaceOnUse"
       gradientTransform="matrix(0.9247229,0,0,1.0872097,-6.0600562,-2.0023583)"
       x1="11.998966"
       y1="2.7615263"
       x2="11.998966"
       y2="15.638639" />
    <linearGradient
       inkscape:collect="always"
       xlink:href="#StandardGradient"
       id="linearGradient2423"
       gradientUnits="userSpaceOnUse"
       gradientTransform="matrix(0.9247229,0,0,1.0872097,-6.0600562,-2.0023583)"
       x1="11.998966"
       y1="2.7615263"
       x2="11.998966"
       y2="15.638639" />
    <inkscape:perspective
       id="perspective2892"
       inkscape:persp3d-origin="0.53333333 : 0.35555555 : 1"
       inkscape:vp_z="1.0666667 : 0.53333333 : 1"
       inkscape:vp_y="0 : 1066.6667 : 0"
       inkscape:vp_x="0 : 0.53333333 : 1"
       sodipodi:type="inkscape:persp3d" />
    <linearGradient
       inkscape:collect="always"
       xlink:href="#StandardGradient"
       id="linearGradient2942"
       gradientUnits="userSpaceOnUse"
       gradientTransform="matrix(0.9247229,0,0,1.0872097,-26.060056,-2.0023583)"
       x1="11.998966"
       y1="2.7615263"
       x2="11.998966"
       y2="15.638639" />
    <clipPath
       clipPathUnits="userSpaceOnUse"
       id="clipPath2949">
      <path
         style="display:inline;fill:#ff00ff;fill-opacity:1;stroke:none"
         d="M -20,0 V 16 H -4 V 0 Z m 3,1 h 3 c 0.554,0 1,0.446 1,1 h 6 c 0.554,0 1,0.446 1,1 H -18 V 2 c 0,-0.554 0.446,-1 1,-1 z m -0.5,3 h 4 6 1 C -5.669,4 -5,4.669 -5,5.5 v 4.5 1.5 c 0,0.647488 -0.396277,1.195291 -0.96875,1.40625 V 13.0625 H -6 V 13.5 c 0,0.831 -0.669,1.5 -1.5,1.5 h -6 C -14.331,15 -15,14.331 -15,13.5 V 13 h -2.5 C -18.331,13 -19,12.331 -19,11.5 V 10 5.5 C -19,4.669 -18.331,4 -17.5,4 Z m 5,2 C -12.777,6 -13,6.223 -13,6.5 v 6 c 0,0.277 0.223,0.5 0.5,0.5 h 4 c 0.277,0 0.5,-0.223 0.5,-0.5 v -6 C -8,6.223 -8.223,6 -8.5,6 Z"
         id="path2951"
         inkscape:connector-curvature="0" />
    </clipPath>
    <linearGradient
       inkscape:collect="always"
       xlink:href="#StandardGradient"
       id="linearGradient5012"
       gradientUnits="userSpaceOnUse"
       gradientTransform="matrix(0.9247229,0,0,1.0872097,-6.0600562,-2.0023583)"
       x1="11.998966"
       y1="2.7615263"
       x2="11.998966"
       y2="15.638639" />
    <linearGradient
       inkscape:collect="always"
       xlink:href="#StandardGradient"
       id="linearGradient5016"
       gradientUnits="userSpaceOnUse"
       gradientTransform="matrix(0.9247229,0,0,1.0872097,-6.0600562,-2.0023583)"
       x1="11.998966"
       y1="2.7615263"
       x2="11.998966"
       y2="15.638639" />
    <linearGradient
       inkscape:collect="always"
       xlink:href="#StandardGradient"
       id="linearGradient3176"
       gradientUnits="userSpaceOnUse"
       gradientTransform="matrix(0.9247229,0,0,1.0872097,-6.0600562,-2.0023583)"
       x1="11.998966"
       y1="2.7615263"
       x2="11.998966"
       y2="15.638639" />
    <linearGradient
       inkscape:collect="always"
       xlink:href="#StandardGradient"
       id="linearGradient3180"
       gradientUnits="userSpaceOnUse"
       gradientTransform="matrix(0.9247229,0,0,1.0872097,-6.0600562,-2.0023583)"
       x1="11.998966"
       y1="2.7615263"
       x2="11.998966"
       y2="15.638639" />
    <linearGradient
       inkscape:collect="always"
       xlink:href="#StandardGradient"
       id="linearGradient3042"
       gradientUnits="userSpaceOnUse"
       gradientTransform="matrix(0.9247229,0,0,1.0872097,-6.0600562,-2.0023583)"
       x1="11.998966"
       y1="2.7615263"
       x2="11.998966"
       y2="15.638639" />
    <linearGradient
       inkscape:collect="always"
       xlink:href="#StandardGradient"
       id="linearGradient3047"
       gradientUnits="userSpaceOnUse"
       gradientTransform="matrix(0.9247229,0,0,1.0872097,-6.0600562,-2.0023583)"
       x1="11.998966"
       y1="2.7615263"
       x2="11.998966"
       y2="15.638639" />
    <linearGradient
       inkscape:collect="always"
       xlink:href="#StandardGradient"
       id="linearGradient3052"
       gradientUnits="userSpaceOnUse"
       gradientTransform="matrix(0.9247229,0,0,1.0872097,-6.0600562,-2.0023583)"
       x1="11.998966"
       y1="2.7615263"
       x2="11.998966"
       y2="15.638639" />
    <linearGradient
       inkscape:collect="always"
       xlink:href="#StandardGradient"
       id="linearGradient3059"
       gradientUnits="userSpaceOnUse"
       gradientTransform="matrix(0.9247229,0,0,1.0872097,-6.0600562,-2.0023583)"
       x1="11.998966"
       y1="2.7615263"
       x2="11.998966"
       y2="15.638639" />
    <linearGradient
       inkscape:collect="always"
       xlink:href="#StandardGradient"
       id="linearGradient3062"
       gradientUnits="userSpaceOnUse"
       gradientTransform="matrix(-0.9247229,0,0,1.0872097,22.060056,-2.0023583)"
       x1="11.998966"
       y1="2.7615263"
       x2="11.998966"
       y2="15.638639" />
    <linearGradient
       inkscape:collect="always"
       xlink:href="#StandardGradient"
       id="linearGradient3064"
       gradientUnits="userSpaceOnUse"
       gradientTransform="matrix(0.9247229,0,0,1.0872097,-6.0600562,-2.0023583)"
       x1="11.998966"
       y1="2.7615263"
       x2="11.998966"
       y2="15.638639" />
    <linearGradient
       inkscape:collect="always"
       xlink:href="#StandardGradient"
       id="linearGradient3067"
       gradientUnits="userSpaceOnUse"
       gradientTransform="matrix(0.9247229,0,0,1.0872097,-6.0600562,-1.0023583)"
       x1="11.998966"
       y1="2.7615263"
       x2="11.998966"
       y2="15.638639" />
    <linearGradient
       inkscape:collect="always"
       xlink:href="#StandardGradient"
       id="linearGradient3071"
       gradientUnits="userSpaceOnUse"
       gradientTransform="matrix(0.9247229,0,0,1.0872097,-6.0600562,-2.0023583)"
       x1="11.998966"
       y1="2.7615263"
       x2="11.998966"
       y2="15.638639" />
    <linearGradient
       inkscape:collect="always"
       xlink:href="#StandardGradient"
       id="linearGradient3074"
       gradientUnits="userSpaceOnUse"
       gradientTransform="matrix(0.9247229,0,0,1.0872097,-6.0600562,-2.0023583)"
       x1="11.998966"
       y1="2.7615263"
       x2="11.998966"
       y2="15.638639" />
    <inkscape:perspective
       id="perspective19-0"
       inkscape:persp3d-origin="11 : 7.3333333 : 1"
       inkscape:vp_z="22 : 11 : 1"
       inkscape:vp_y="0 : 1000 : 0"
       inkscape:vp_x="0 : 11 : 1"
       sodipodi:type="inkscape:persp3d" />
    <inkscape:perspective
       sodipodi:type="inkscape:persp3d"
       inkscape:vp_x="0 : 0.5 : 1"
       inkscape:vp_y="0 : 1000 : 0"
       inkscape:vp_z="1 : 0.5 : 1"
       inkscape:persp3d-origin="0.5 : 0.33333333 : 1"
       id="perspective2892-6" />
    <clipPath
       id="clipPath2949-0"
       clipPathUnits="userSpaceOnUse">
      <path
         id="path2951-6"
         d="m -20,0 0,16 16,0 0,-16 -16,0 z m 3,1 3,0 c 0.554,0 1,0.446 1,1 l 6,0 c 0.554,0 1,0.446 1,1 l -12,0 0,-1 c 0,-0.554 0.446,-1 1,-1 z m -0.5,3 4,0 6,0 1,0 C -5.669,4 -5,4.669 -5,5.5 l 0,4.5 0,1.5 c 0,0.647488 -0.396277,1.195291 -0.96875,1.40625 l 0,0.15625 -0.03125,0 0,0.4375 c 0,0.831 -0.669,1.5 -1.5,1.5 l -6,0 c -0.831,0 -1.5,-0.669 -1.5,-1.5 l 0,-0.5 -2.5,0 c -0.831,0 -1.5,-0.669 -1.5,-1.5 l 0,-1.5 0,-4.5 C -19,4.669 -18.331,4 -17.5,4 z m 5,2 C -12.777,6 -13,6.223 -13,6.5 l 0,6 c 0,0.277 0.223,0.5 0.5,0.5 l 4,0 c 0.277,0 0.5,-0.223 0.5,-0.5 l 0,-6 C -8,6.223 -8.223,6 -8.5,6 l -4,0 z"
         style="fill:#ff00ff;fill-opacity:1;stroke:none;display:inline" />
    </clipPath>
    <inkscape:perspective
       id="perspective19-1"
       inkscape:persp3d-origin="11.733333 : 7.8222222 : 1"
       inkscape:vp_z="23.466667 : 11.733333 : 1"
       inkscape:vp_y="0 : 1066.6667 : 0"
       inkscape:vp_x="0 : 11.733333 : 1"
       sodipodi:type="inkscape:persp3d" />
    <inkscape:perspective
       sodipodi:type="inkscape:persp3d"
       inkscape:vp_x="0 : 0.53333333 : 1"
       inkscape:vp_y="0 : 1066.6667 : 0"
       inkscape:vp_z="1.0666667 : 0.53333333 : 1"
       inkscape:persp3d-origin="0.53333333 : 0.35555555 : 1"
       id="perspective2892-0" />
    <clipPath
       id="clipPath2949-9"
       clipPathUnits="userSpaceOnUse">
      <path
         inkscape:connector-curvature="0"
         id="path2951-3"
         d="M -20,0 V 16 H -4 V 0 Z m 3,1 h 3 c 0.554,0 1,0.446 1,1 h 6 c 0.554,0 1,0.446 1,1 H -18 V 2 c 0,-0.554 0.446,-1 1,-1 z m -0.5,3 h 4 6 1 C -5.669,4 -5,4.669 -5,5.5 v 4.5 1.5 c 0,0.647488 -0.396277,1.195291 -0.96875,1.40625 V 13.0625 H -6 V 13.5 c 0,0.831 -0.669,1.5 -1.5,1.5 h -6 C -14.331,15 -15,14.331 -15,13.5 V 13 h -2.5 C -18.331,13 -19,12.331 -19,11.5 V 10 5.5 C -19,4.669 -18.331,4 -17.5,4 Z m 5,2 C -12.777,6 -13,6.223 -13,6.5 v 6 c 0,0.277 0.223,0.5 0.5,0.5 h 4 c 0.277,0 0.5,-0.223 0.5,-0.5 v -6 C -8,6.223 -8.223,6 -8.5,6 Z"
         style="display:inline;fill:#ff00ff;fill-opacity:1;stroke:none" />
    </clipPath>
  </defs>
  <metadata
     id="metadata7">
    <rdf:RDF>
      <cc:Work
         rdf:about="">
        <dc:format>image/svg+xml</dc:format>
        <dc:type
           rdf:resource="http://purl.org/dc/dcmitype/StillImage" />
        <dc:title></dc:title>
      </cc:Work>
    </rdf:RDF>
  </metadata>
  <g
     style="display:inline"
     inkscape:label="Calque 1"
     id="layer1"
     inkscape:groupmode="layer"
     transform="translate(0,-1.0666676)">
    <g
       style="display:inline"
       id="g208"
       transform="translate(1.67504e-8,1.066667)">
      <g
         id="g276"
         transform="matrix(1.076923,0,0,1.0769231,-0.78527472,-0.48896115)">
        <path
           d="m 8.1577554,1.3826068 c -3.5898508,0 -6.5000002,2.9101496 -6.5000002,6.4999987 0,3.5898575 2.9101494,6.5000015 6.5000002,6.5000015 3.5898506,0 6.5000006,-2.910144 6.5000006,-6.5000015 0,-3.5898491 -2.91015,-6.4999987 -6.5000006,-6.4999987 z m 0,0.5416666 c 2.7292946,0 5.0300006,1.8351338 5.7355726,4.3387491 C 13.285619,7.516489 12.420891,8.6450527 11.367807,9.557035 10.861918,9.9951349 10.309589,10.38569 9.6994739,10.660681 9.0893588,10.935671 8.4182771,11.091698 7.7501512,11.053389 7.2481749,11.024599 6.752303,10.884768 6.3127033,10.641045 7.4777224,10.00976 8.5288975,9.1680683 9.3893703,8.1602096 9.9541665,7.4986709 10.448321,6.746854 10.638589,5.8980747 10.733723,5.4736857 10.749845,5.029228 10.660932,4.6034916 10.57202,4.1777552 10.375178,3.772047 10.077287,3.4551585 9.7862654,3.1455784 9.4042214,2.9262847 8.9946304,2.8132836 8.5850394,2.7002838 8.1491632,2.6915346 7.7311929,2.767919 6.8952521,2.920688 6.1489095,3.4065222 5.5503074,4.0096896 4.495184,5.0728592 3.8428953,6.5730115 3.9625469,8.0660951 4.0223725,8.8126362 4.2725493,9.5462152 4.7012449,10.160316 4.796936,10.297385 4.9021356,10.427954 5.0147345,10.55167 4.3902161,10.770233 3.7435789,10.925813 3.0877553,11.013441 2.524686,10.103604 2.1994219,9.0312122 2.1994219,7.8826055 c 0,-3.2906961 2.6676366,-5.9583321 5.9583335,-5.9583321 z M 8.195672,3.1281273 C 8.6145191,3.128669 9.0362123,3.2554961 9.3704119,3.507971 9.6715093,3.7354398 9.8946135,4.0590503 10.021089,4.4145854 10.147564,4.7701204 10.180022,5.1562108 10.13687,5.5310956 10.050567,6.2808664 9.6723291,6.9684647 9.21536,7.569116 8.4062382,8.6326444 7.3307536,9.4838694 6.1346303,10.079743 6.0121977,10.140735 5.8878246,10.198707 5.7629116,10.254431 5.5026444,10.026673 5.279567,9.7565308 5.1095261,9.4554698 4.7542202,8.8263837 4.6370498,8.0790924 4.7059845,7.3598973 4.7749191,6.6407036 5.0217285,5.9475532 5.3532761,5.3056269 5.7376909,4.5613432 6.261681,3.8563452 6.9952033,3.4517731 7.3619644,3.2494877 7.7768246,3.1275599 8.195672,3.1281273 Z m 5.866927,3.9568742 c 0.03491,0.2609208 0.05349,0.5271296 0.05349,0.797604 0,3.2906945 -2.667637,5.9583345 -5.9583336,5.9583345 -1.8480889,0 -3.4997678,-0.841316 -4.5926564,-2.161926 0.6745619,-0.153211 1.333864,-0.373276 1.9662501,-0.653386 0.2765471,0.210614 0.581961,0.383351 0.9066146,0.507813 0.9349387,0.358434 1.9964065,0.30657 2.9426046,-0.02099 0.9461977,-0.327559 1.7852617,-0.915497 2.5167187,-1.5992703 0.871354,-0.8145608 1.606021,-1.7746553 2.165312,-2.8281792 z"
           inkscape:connector-curvature="0"
           id="path2993"
           style="color:#bebebe;display:inline;overflow:visible;visibility:visible;fill:#bebebe;fill-opacity:1;fill-rule:nonzero;stroke:none;stroke-width:1;stroke-linecap:butt;stroke-linejoin:miter;stroke-miterlimit:4;stroke-dasharray:none;stroke-dashoffset:0;stroke-opacity:1;marker:none;enable-background:accumulate" />
        <g
           transform="translate(-712.66121,602.44068)"
           style="display:inline"
           inkscape:label="status"
           id="layer9" />
        <g
           transform="translate(-712.66121,602.44068)"
           style="display:inline"
           inkscape:label="devices"
           id="layer10" />
        <g
           transform="translate(-712.66121,602.44068)"
           inkscape:label="apps"
           id="layer11" />
        <g
           transform="translate(-712.66121,602.44068)"
           inkscape:label="mimetypes"
           id="layer14" />
        <g
           transform="translate(-712.66121,602.44068)"
           style="display:inline"
           inkscape:label="emblems"
           id="layer15" />
        <g
           transform="translate(-712.66121,602.44068)"
           style="display:inline"
           inkscape:label="emotes"
           id="g71291" />
        <g
           transform="translate(-712.66121,602.44068)"
           style="display:inline"
           inkscape:label="categories"
           id="g4953" />
        <g
           transform="translate(-712.66121,602.44068)"
           style="display:inline"
           inkscape:label="actions"
           id="layer12" />
      </g>
    </g>
  </g>
</svg>
