<svg height="16" width="16" xmlns="http://www.w3.org/2000/svg"><g fill="#808080"><path d="m11.4 8.4716676-6.7999999-.000002.0000001 1.7000024h6.7999998z" transform="matrix(1.1764706 0 0 1.1764705 -1.411765 -2.966667)"/><path d="m8 1c-3.8659927 0-6.9999991 3.1340067-6.9999991 6.9999998 0 3.8659932 3.1340064 7.0000002 6.9999991 7.0000002 3.865994 0 7.000001-3.134007 7.000001-7.0000002 0-3.8659931-3.134007-6.9999998-7.000001-6.9999998zm0 1c3.315 0 6 2.685 6 6s-2.685 6-6 6-6-2.685-6-6 2.685-6 6-6z" stroke-width=".875"/></g></svg>