<svg height="16" width="16" xmlns="http://www.w3.org/2000/svg"><g fill="#808080" transform="matrix(-.5 .8660254 -.8660254 -.5 18.928204 5.071796)"><path d="m12.263133 4.3839794c-.477681.2757888-.641814.8883364-.366016 1.3660221.275788.4776815.88834.6418152 1.366022.3660256.477682-.2757884.641814-.8883379.366033-1.3660192-.275794-.4776849-.888343-.6418142-1.366025-.3660253z" stroke-width=".009165" transform="matrix(-.5 -.8660254 .8660254 -.5 5.071798 18.928203)"/><path d="m11.244823 9.296048.875927.505716c.423569-.972192.499846-2.0814909.177344-3.1272485-.371419-.1167768-.661753-.3761902-.833991-.6745152-.172238-.2983251-.250686-.6824217-.166935-1.0630299-.743061-.7996453-1.7455636-1.286813-2.7971674-1.4065683l-.000001 1.0120783zm-2.7448234-4.7535676c1.0253717.1508179 1.9776744.7489748 2.5310904 1.7075199.554155.9598241.597449 2.0817835.213733 3.0460477z" stroke-width=".642857" transform="matrix(-.5 -.8660254 .8660254 -.5 5.071798 18.928203)"/><path d="m7.1111138 3.1111181c-.0000006.4902924.3985908.8888854.8888905.8888805.4902919.0000011.8888871-.3985928.8888873-.8888858.0000013-.4902928-.398592-.888886-.8888808-.8888921-.4902972.0000019-.888888.398596-.8888884.8888883z" stroke-width=".008147" transform="matrix(-1.125 .00000005 .00000004 -1.1249999 17.000003 16.999998)"/><path d="m7.9999998-.00000053c-4.418278 0-7.9999998 3.58172203-7.9999998 7.99999993 0 4.4182786 3.5817218 8.0000006 7.9999998 8.0000006 4.4182792 0 8.0000022-3.581722 8.0000022-8.0000006 0-4.4182779-3.581723-7.99999993-8.0000022-7.99999993zm.0000002 1.00000003c3.85 0 7 3.15 7 7 0 3.8500005-3.15 7.0000005-7 7.0000005s-7-3.15-7-7.0000005c0-3.85 3.15-7 7-7z" transform="matrix(-.5 -.8660254 .8660254 -.5 5.071798 18.928203)"/><path d="m5.2551794 10.162074-.8759262.505717c.6301577.852918 1.5527002 1.473625 2.6196038 1.717209.2868413-.26327.6566669-.385 1.001143-.385s.7163377.12411 1.0040783.386945c1.0640437-.243687 1.9871947-.868296 2.6167077-1.719134l-.876485-.50604zm5.4891216-.000303c-.643298.812589-1.6374685 1.338229-2.744301 1.338229-1.1083094 0-2.1016018-.523486-2.7448206-1.337926z" stroke-width=".642857"/><path d="m12.263133 4.3839793c-.477681.2757889-.641814.8883365-.366016 1.3660222.275788.4776815.88834.6418152 1.366022.3660256.477682-.2757884.641814-.8883379.366033-1.3660192-.275794-.477685-.888343-.6418143-1.366025-.3660253z" stroke-width=".009165"/><path d="m11.244823 9.2960476.875927.5057159c.423569-.9721916.499846-2.0814904.177344-3.127248-.371419-.1167768-.661753-.3761902-.833991-.6745152-.172238-.2983251-.250686-.6824217-.166935-1.0630299-.743061-.7996454-1.7455636-1.2868131-2.7971674-1.4065683l-.000001 1.0120783zm-2.7448234-4.7535672c1.0253717.1508179 1.9776744.7489748 2.5310904 1.7075199.554155.9598241.597449 2.0817835.213733 3.0460473z" stroke-width=".642857"/></g></svg>