<?xml version="1.0" encoding="UTF-8" standalone="no"?>
<!-- Created with Inkscape (http://www.inkscape.org/) -->

<svg
   xmlns:dc="http://purl.org/dc/elements/1.1/"
   xmlns:cc="http://creativecommons.org/ns#"
   xmlns:rdf="http://www.w3.org/1999/02/22-rdf-syntax-ns#"
   xmlns:svg="http://www.w3.org/2000/svg"
   xmlns="http://www.w3.org/2000/svg"
   xmlns:xlink="http://www.w3.org/1999/xlink"
   xmlns:sodipodi="http://sodipodi.sourceforge.net/DTD/sodipodi-0.dtd"
   xmlns:inkscape="http://www.inkscape.org/namespaces/inkscape"
   id="svg7384"
   height="16"
   width="16"
   version="1.1"
   inkscape:version="0.48.4 r9939"
   sodipodi:docname="user-lock-symbolic.svg">
  <defs
     id="defs10">
    <inkscape:perspective
       sodipodi:type="inkscape:persp3d"
       inkscape:vp_x="0 : 8 : 1"
       inkscape:vp_y="0 : 1000 : 0"
       inkscape:vp_z="16 : 8 : 1"
       inkscape:persp3d-origin="8 : 5.3333333 : 1"
       id="perspective16" />
    <linearGradient
       id="StandardGradient"
       gradientTransform="scale(1.0784122,0.9272892)"
       x1="9.0752506"
       y1="2.2159534"
       x2="9.0752506"
       y2="13.952041"
       gradientUnits="userSpaceOnUse">
      <stop
         style="stop-color:#000000;stop-opacity:0.86274511;"
         offset="0"
         id="stop3280" />
      <stop
         style="stop-color:#000000;stop-opacity:0.47058824;"
         offset="1"
         id="stop3282" />
    </linearGradient>
    <inkscape:perspective
       id="perspective3697"
       inkscape:persp3d-origin="0.5 : 0.33333333 : 1"
       inkscape:vp_z="1 : 0.5 : 1"
       inkscape:vp_y="0 : 1000 : 0"
       inkscape:vp_x="0 : 0.5 : 1"
       sodipodi:type="inkscape:persp3d" />
    <linearGradient
       inkscape:collect="always"
       xlink:href="#StandardGradient"
       id="linearGradient3625"
       gradientUnits="userSpaceOnUse"
       gradientTransform="matrix(1.0784122,0,0,0.9272892,-20,0)"
       x1="9.0752506"
       y1="2.2159534"
       x2="9.0752506"
       y2="13.952041" />
    <clipPath
       clipPathUnits="userSpaceOnUse"
       id="clipPath3632">
      <path
         style="fill:#ff00ff;fill-opacity:1;stroke:none;display:inline"
         d="m -20,0 0,16 16,0 0,-16 -16,0 z m 8.09375,2.0625 c 0.173909,-0.017258 0.321577,0 0.5,0 2.967459,0 5.375001,2.4264215 5.375,5.4375 0,2.864578 -2.17034,5.215497 -4.9375,5.4375 l 0,-1.84375 C -9.191791,10.880677 -7.8125,9.3611571 -7.8125,7.5 c 0,-2.0073863 -1.615444,-3.624999 -3.59375,-3.625 -1.86764,0 -3.365967,1.4304651 -3.53125,3.28125 l 1.875,0 -2.90625,4.09375 -2.71875,-4.09375 1.9375,0 c 0.162577,-2.6743762 2.235116,-4.834874 4.84375,-5.09375 z"
         id="path3634" />
    </clipPath>
    <linearGradient
       inkscape:collect="always"
       xlink:href="#StandardGradient"
       id="linearGradient3999"
       gradientUnits="userSpaceOnUse"
       gradientTransform="scale(1.0784122,0.9272892)"
       x1="9.0752506"
       y1="2.2159534"
       x2="9.0752506"
       y2="13.952041" />
    <linearGradient
       inkscape:collect="always"
       xlink:href="#StandardGradient"
       id="linearGradient4003"
       gradientUnits="userSpaceOnUse"
       gradientTransform="scale(1.0784122,0.9272892)"
       x1="9.0752506"
       y1="2.2159534"
       x2="9.0752506"
       y2="13.952041" />
  </defs>
  <sodipodi:namedview
     pagecolor="#ffffff"
     bordercolor="#666666"
     borderopacity="1"
     objecttolerance="10"
     gridtolerance="10"
     guidetolerance="10"
     inkscape:pageopacity="0"
     inkscape:pageshadow="2"
     inkscape:window-width="1274"
     inkscape:window-height="952"
     id="namedview8"
     showgrid="false"
     inkscape:zoom="14.75"
     inkscape:cx="8"
     inkscape:cy="8"
     inkscape:window-x="0"
     inkscape:window-y="37"
     inkscape:window-maximized="1"
     inkscape:current-layer="svg7384" />
  <metadata
     id="metadata90">
    <rdf:RDF>
      <cc:Work
         rdf:about="">
        <dc:format>image/svg+xml</dc:format>
        <dc:type
           rdf:resource="http://purl.org/dc/dcmitype/StillImage" />
        <dc:title>Gnome Symbolic Icon Theme</dc:title>
      </cc:Work>
    </rdf:RDF>
  </metadata>
  <title
     id="title9167">Gnome Symbolic Icon Theme</title>
  <g
     transform="matrix(0.86842103,0,0,0.82208591,-2.3202157,-847.00513)"
     id="layer1"
     inkscape:label="Layer 1">
    <g
       id="layer9"
       transform="matrix(1.2666667,0,0,1.2538413,-227.5,733.43307)">
      <path
         inkscape:connector-curvature="0"
         id="rect4063"
         style="color:#bebebe;fill:#bebebe"
         d="m 184,244 c -0.554,0 -1,0.446 -1,1 v 0.53125 5.4688 h 12 v -5.4688 -0.53 c 0,-0.554 -0.446,-1 -1,-1 h -10 z" />
      <path
         inkscape:connector-curvature="0"
         id="rect4291"
         style="text-indent:0;text-transform:none;block-progression:tb;color:#bebebe;fill:#bebebe"
         d="m 188,238 c -1.6447,0 -3,1.3553 -3,3 v 7 c 0,1.6447 1.3553,3 3,3 h 2 c 1.6447,0 3,-1.3553 3,-3 v -7 c 0,-1.6447 -1.3553,-3 -3,-3 h -2 z m 0,2 h 2 c 0.5713,0 1,0.4287 1,1 v 7 c 0,0.5713 -0.4287,1 -1,1 h -2 c -0.5713,0 -1,-0.4287 -1,-1 v -7 c 0,-0.5713 0.4287,-1 1,-1 z" />
    </g>
  </g>
</svg>
