<svg height="16" width="16" xmlns="http://www.w3.org/2000/svg"><g fill="#808080" transform="translate(0 -1.066668)"><path d="m6.9987963.0000003.0012037 7.9999997h2l-.0013509-7.9999997z" transform="matrix(0 -1.0000736 1 0 0 17.067183)"/><path d="m5.7142857.34285711c-3.3209604.97321509-5.7142857 4.02145319-5.7142857 7.65714289 0 4.418278 3.581722 8 8 8s8-3.581722 8-8c0-3.6190297-2.416746-6.669298-5.714286-7.65714289zm4.5714283 1.14285719c2.608966.9852216 4.571429 3.6493462 4.571429 6.5142857 0 3.657143-3.2 6.857143-6.857143 6.857143-3.6571429 0-6.8571429-3.2-6.8571429-6.857143 0-2.8695213 1.9700852-5.4576017 4.5852866-6.4392724l-.013858-1.21787049h4.5714283z" transform="matrix(0 -.875 .875 0 1 16.066668)"/></g></svg>