<svg height="16" width="16" xmlns="http://www.w3.org/2000/svg"><g fill="#808080" transform="translate(0 -1.066668)"><g transform="matrix(-.89829965 0 0 -1 15 16.066668)"><path d="m-.00000002 8c.00000002 3 1.11321432 4 4.45185712 4h6.6802859v-1h-6.9019287c-2.2264286 0-3.117-.8-3.117-2.8v-3.4999996l-1.1132143-.7z"/><path d="m11.132143 9-1.113214 2.5 1.115114 2.5c.738097-.348 1.490761-.737 2.25605-1.166.758533-.431 1.489831-.876 2.194907-1.334-.705076-.449-1.436374-.889-2.194865-1.32-.740611-.4166808-1.493296-.8101942-2.257021-1.18z" stroke-width=".985484"/></g><g transform="matrix(.89829965 0 0 1 1 2.066668)"><path d="m-.00000002 8c.00000002 3 1.11321432 4 4.45185712 4h6.6802859v-1h-6.9019287c-2.2264286 0-3.117-.8-3.117-2.8v-3.5l-1.11321432-.7z"/><path d="m11.132143 9-1.113214 2.5 1.115114 2.5c.738097-.348 1.490761-.737 2.25605-1.166.758533-.431 1.489831-.876 2.194907-1.334-.705076-.449-1.436374-.889-2.194865-1.32-.740611-.4166808-1.493296-.8101942-2.257021-1.18z" stroke-width=".985484"/></g></g></svg>