<?xml version="1.0" encoding="UTF-8" standalone="no"?>
<!-- Created with Inkscape (http://www.inkscape.org/) -->

<svg
   xmlns:dc="http://purl.org/dc/elements/1.1/"
   xmlns:cc="http://creativecommons.org/ns#"
   xmlns:rdf="http://www.w3.org/1999/02/22-rdf-syntax-ns#"
   xmlns:svg="http://www.w3.org/2000/svg"
   xmlns="http://www.w3.org/2000/svg"
   xmlns:xlink="http://www.w3.org/1999/xlink"
   xmlns:sodipodi="http://sodipodi.sourceforge.net/DTD/sodipodi-0.dtd"
   xmlns:inkscape="http://www.inkscape.org/namespaces/inkscape"
   width="16"
   height="16"
   id="svg2"
   sodipodi:version="0.32"
   inkscape:version="0.91 r13725"
   version="1.0"
   sodipodi:docname="alternate.svg"
   inkscape:output_extension="org.inkscape.output.svg.inkscape"
   inkscape:export-filename="/home/matt/.icons/Sirocco/scalable/mimetypes/text-plain.png"
   inkscape:export-xdpi="90"
   inkscape:export-ydpi="90"
   sodipodi:modified="true"
   style="display:inline">
  <sodipodi:namedview
     id="base"
     pagecolor="#ffffff"
     bordercolor="#666666"
     borderopacity="1.0"
     inkscape:pageopacity="0.0"
     inkscape:pageshadow="2"
     inkscape:zoom="65.262261"
     inkscape:cx="5.4563125"
     inkscape:cy="10.27054"
     inkscape:document-units="px"
     inkscape:current-layer="layer1"
     width="128px"
     height="128px"
     inkscape:showpageshadow="false"
     inkscape:window-width="522"
     inkscape:window-height="422"
     inkscape:window-x="710"
     inkscape:window-y="171"
     showguides="true"
     inkscape:guide-bbox="true"
     showgrid="true"
     inkscape:window-maximized="0">
    <sodipodi:guide
       id="guide2226"
       position="32.637397,117.99844"
       orientation="horizontal" />
    <sodipodi:guide
       id="guide2230"
       position="110,57.402344"
       orientation="vertical" />
    <sodipodi:guide
       id="guide2232"
       position="33.760911"
       orientation="horizontal" />
    <sodipodi:guide
       id="guide2231"
       position="46.774696"
       orientation="horizontal" />
    <inkscape:grid
       enabled="true"
       visible="true"
       id="grid3231"
       type="xygrid" />
    <sodipodi:guide
       orientation="1,0"
       position="100,67.625"
       id="guide2713" />
  </sodipodi:namedview>
  <defs
     id="defs4">
    <inkscape:perspective
       sodipodi:type="inkscape:persp3d"
       inkscape:vp_x="0 : 11 : 1"
       inkscape:vp_y="0 : 1000 : 0"
       inkscape:vp_z="22 : 11 : 1"
       inkscape:persp3d-origin="11 : 7.3333333 : 1"
       id="perspective19" />
    <linearGradient
       id="StandardGradient"
       gradientTransform="scale(0.9219544,1.0846523)"
       x1="11.998966"
       y1="0.92195445"
       x2="11.998966"
       y2="19.387045"
       gradientUnits="userSpaceOnUse">
      <stop
         style="stop-color:#000000;stop-opacity:0.86274511;"
         offset="0"
         id="stop3283" />
      <stop
         style="stop-color:#000000;stop-opacity:0.47058824;"
         offset="1"
         id="stop2651" />
    </linearGradient>
    <linearGradient
       inkscape:collect="always"
       xlink:href="#StandardGradient"
       id="linearGradient2549"
       gradientUnits="userSpaceOnUse"
       gradientTransform="matrix(0.9247229,0,0,1.0872097,-2.0600562,0.9976422)"
       x1="11.998966"
       y1="0.92195445"
       x2="11.998966"
       y2="17.478098" />
    <linearGradient
       inkscape:collect="always"
       xlink:href="#StandardGradient"
       id="linearGradient2418"
       gradientUnits="userSpaceOnUse"
       gradientTransform="matrix(0.9247229,0,0,1.0872097,-4.0600562,-3.0023583)"
       x1="11.998966"
       y1="0.92195445"
       x2="11.998966"
       y2="17.478098" />
    <linearGradient
       inkscape:collect="always"
       xlink:href="#StandardGradient"
       id="linearGradient2422"
       gradientUnits="userSpaceOnUse"
       gradientTransform="matrix(0.9247229,0,0,1.0872097,-5.0600562,-1.0023583)"
       x1="11.998966"
       y1="0.92195445"
       x2="11.998966"
       y2="17.478098" />
    <linearGradient
       inkscape:collect="always"
       xlink:href="#StandardGradient"
       id="linearGradient2403"
       gradientUnits="userSpaceOnUse"
       gradientTransform="matrix(0.9247229,0,0,1.0872097,-4.0600562,-3.0023583)"
       x1="11.998966"
       y1="0.92195445"
       x2="11.998966"
       y2="17.478098" />
    <linearGradient
       inkscape:collect="always"
       xlink:href="#StandardGradient"
       id="linearGradient2406"
       gradientUnits="userSpaceOnUse"
       gradientTransform="matrix(0.9247229,0,0,1.0872097,-4.0600562,-3.0023583)"
       x1="11.998966"
       y1="0.92195445"
       x2="11.998966"
       y2="17.478098" />
    <linearGradient
       inkscape:collect="always"
       xlink:href="#StandardGradient"
       id="linearGradient2409"
       gradientUnits="userSpaceOnUse"
       gradientTransform="matrix(0.9247229,0,0,1.0872097,-6.0600562,-2.0023583)"
       x1="11.998966"
       y1="3.6800685"
       x2="11.998966"
       y2="15.638639" />
    <linearGradient
       inkscape:collect="always"
       xlink:href="#StandardGradient"
       id="linearGradient2416"
       gradientUnits="userSpaceOnUse"
       gradientTransform="matrix(0.9247229,0,0,1.0872097,-6.0600562,-2.0023583)"
       x1="11.998966"
       y1="2.7615263"
       x2="11.998966"
       y2="15.638639" />
    <inkscape:perspective
       id="perspective3648"
       inkscape:persp3d-origin="0.5 : 0.33333333 : 1"
       inkscape:vp_z="1 : 0.5 : 1"
       inkscape:vp_y="0 : 1000 : 0"
       inkscape:vp_x="0 : 0.5 : 1"
       sodipodi:type="inkscape:persp3d" />
    <linearGradient
       inkscape:collect="always"
       xlink:href="#StandardGradient"
       id="linearGradient3634"
       gradientUnits="userSpaceOnUse"
       gradientTransform="matrix(0.9247229,0,0,1.0872097,-26.060056,-2.0023583)"
       x1="11.998966"
       y1="2.7615263"
       x2="11.998966"
       y2="15.638639" />
    <clipPath
       clipPathUnits="userSpaceOnUse"
       id="clipPath3641">
      <path
         style="fill:#ff00ff;fill-opacity:1;stroke:none;display:inline"
         d="m -20,0 0,16 16,0 0,-16 -16,0 z m 3,1 3,0 c 0.554,0 1,0.446 1,1 l 6,0 c 0.554,0 1,0.446 1,1 l -12,0 0,-1 c 0,-0.554 0.446,-1 1,-1 z m -0.5,3 11,0 C -5.669,4 -5,4.669 -5,5.5 l 0,6 c 0,0.831 -0.669,1.5 -1.5,1.5 l -5.5,0 0,-3 -2,0 0,-2 -4,0 0,2 -1,0 0,-4.5 C -19,4.669 -18.331,4 -17.5,4 z m 0.5,5 2,0 0,2 2,0 0,2 -2,0 0,2 -2,0 0,-2 -2,0 0,-2 2,0 0,-2 z"
         id="path3643" />
    </clipPath>
    <linearGradient
       inkscape:collect="always"
       xlink:href="#StandardGradient"
       id="linearGradient2855"
       gradientUnits="userSpaceOnUse"
       gradientTransform="matrix(0.9247229,0,0,1.0872097,-6.0600562,-3.0023583)"
       x1="11.998966"
       y1="2.7615263"
       x2="11.998966"
       y2="15.638639" />
    <linearGradient
       inkscape:collect="always"
       xlink:href="#StandardGradient"
       id="linearGradient2882"
       gradientUnits="userSpaceOnUse"
       gradientTransform="matrix(0.9247229,0,0,1.0872097,-6.0600562,-3.0023583)"
       x1="11.998966"
       y1="3.6812673"
       x2="11.998966"
       y2="15.638639" />
    <linearGradient
       inkscape:collect="always"
       xlink:href="#StandardGradient"
       id="linearGradient2888"
       gradientUnits="userSpaceOnUse"
       gradientTransform="matrix(0.9247229,0,0,1.0872097,-6.0600562,-2.0023583)"
       x1="11.998966"
       y1="3.6812673"
       x2="11.998966"
       y2="15.638639" />
    <linearGradient
       inkscape:collect="always"
       xlink:href="#StandardGradient"
       id="linearGradient2890"
       gradientUnits="userSpaceOnUse"
       gradientTransform="matrix(0.9247229,0,0,1.0872097,-6.0600562,-3.0023583)"
       x1="11.998966"
       y1="3.6812673"
       x2="11.998966"
       y2="15.638639" />
    <linearGradient
       inkscape:collect="always"
       xlink:href="#StandardGradient"
       id="linearGradient3667"
       gradientUnits="userSpaceOnUse"
       gradientTransform="matrix(0.9247229,0,0,1.0872097,-6.0600562,-2.0023583)"
       x1="11.998966"
       y1="3.6812673"
       x2="11.998966"
       y2="15.638639" />
    <linearGradient
       inkscape:collect="always"
       xlink:href="#StandardGradient"
       id="linearGradient3671"
       gradientUnits="userSpaceOnUse"
       gradientTransform="matrix(0.9247229,0,0,1.0872097,-6.0600562,-3.0023583)"
       x1="11.998966"
       y1="3.6812673"
       x2="11.998966"
       y2="15.638639" />
    <linearGradient
       inkscape:collect="always"
       xlink:href="#StandardGradient"
       id="linearGradient3680"
       gradientUnits="userSpaceOnUse"
       gradientTransform="matrix(0.9247229,0,0,1.0872097,-26.060056,-2.0023583)"
       x1="11.998966"
       y1="3.6812673"
       x2="11.998966"
       y2="15.638639" />
    <clipPath
       clipPathUnits="userSpaceOnUse"
       id="clipPath3685">
      <path
         style="fill:#ff00ff;fill-opacity:1;stroke:none;display:inline"
         d="m -20,0 0,16 16,0 0,-16 -16,0 z m 2,2 12,0 c 0.554,0 1,0.446 1,1 l 0,9 c 0,0.554 -0.446,1 -1,1 l -6,0 0,-2 4,0 -2.5,-2.5 -1.5,1.5 -5,-5 0,3 -1,0 0,2 -1,0 0,-7 c 0,-0.554 0.446,-1 1,-1 z m 2,2 4,4 4,-4 -8,0 z M -7,5 -9.5,7.5 -7,10 -7,5 z m -10,4 2,0 0,2 2,0 0,2 -2,0 0,2 -2,0 0,-2 -2,0 0,-2 2,0 0,-2 z"
         id="path3687" />
    </clipPath>
    <linearGradient
       inkscape:collect="always"
       xlink:href="#StandardGradient"
       id="linearGradient2863"
       gradientUnits="userSpaceOnUse"
       gradientTransform="matrix(0.9247229,0,0,1.0872097,-26.060056,-3.0023583)"
       x1="11.998966"
       y1="3.6812673"
       x2="11.998966"
       y2="15.638639" />
    <clipPath
       clipPathUnits="userSpaceOnUse"
       id="clipPath2870">
      <path
         style="fill:#ff00ff;fill-opacity:1;stroke:none;display:inline"
         d="m -20,0 0,16 16,0 0,-16 -16,0 z m 2,1 12,0 c 0.554,0 1,0.446 1,1 l 0,9 c 0,0.554 -0.446,1 -1,1 l -6,0 0,-2 4,0 -2.5,-2.5 -1.5,1.5 -5,-5 0,3 -1,0 0,2 -1,0 0,-7 c 0,-0.554 0.446,-1 1,-1 z m 2,2 4,4 4,-4 -8,0 z M -7,4 -9.5,6.5 -7,9 -7,4 z m -10,4 2,0 0,2 2,0 0,2 -2,0 0,2 -2,0 0,-2 -2,0 0,-2 2,0 0,-2 z"
         id="path2872" />
    </clipPath>
    <inkscape:perspective
       id="perspective3764"
       inkscape:persp3d-origin="0.5 : 0.33333333 : 1"
       inkscape:vp_z="1 : 0.5 : 1"
       inkscape:vp_y="0 : 1000 : 0"
       inkscape:vp_x="0 : 0.5 : 1"
       sodipodi:type="inkscape:persp3d" />
    <linearGradient
       inkscape:collect="always"
       xlink:href="#StandardGradient"
       id="linearGradient3660"
       gradientUnits="userSpaceOnUse"
       x1="7.4833517"
       y1="0.4833518"
       x2="7.4833517"
       y2="15.009191"
       gradientTransform="translate(0,1)" />
    <linearGradient
       inkscape:collect="always"
       xlink:href="#StandardGradient"
       id="linearGradient3662"
       gradientUnits="userSpaceOnUse"
       x1="7.4833517"
       y1="0.4833518"
       x2="7.4833517"
       y2="15.009191" />
    <linearGradient
       inkscape:collect="always"
       xlink:href="#StandardGradient"
       id="linearGradient3668"
       gradientUnits="userSpaceOnUse"
       x1="7.4833517"
       y1="0.4833518"
       x2="7.4833517"
       y2="15.009191"
       gradientTransform="translate(0,1)" />
    <linearGradient
       inkscape:collect="always"
       xlink:href="#StandardGradient"
       id="linearGradient3672"
       gradientUnits="userSpaceOnUse"
       x1="7.4833517"
       y1="0.4833518"
       x2="7.4833517"
       y2="15.009191" />
    <linearGradient
       inkscape:collect="always"
       xlink:href="#StandardGradient"
       id="linearGradient3677"
       gradientUnits="userSpaceOnUse"
       x1="7.4833517"
       y1="0.4833518"
       x2="7.4833517"
       y2="15.009191"
       gradientTransform="translate(-20,0)" />
    <clipPath
       clipPathUnits="userSpaceOnUse"
       id="clipPath3686">
      <path
         style="fill:#ff00ff;fill-opacity:1;stroke:none;display:inline"
         d="m -20,0 0,16 16,0 0,-16 -16,0 z m 9,1 4,0 0,4 2,0 -4,4 -4,-4 2,0 0,-4 z m -4,6 4,4 -2,0 0,4 -4,0 0,-4 -2,0 4,-4 z"
         id="path3688" />
    </clipPath>
    <linearGradient
       inkscape:collect="always"
       xlink:href="#StandardGradient"
       id="linearGradient5060"
       gradientUnits="userSpaceOnUse"
       x1="7.4833517"
       y1="0.4833518"
       x2="7.4833517"
       y2="15.009191" />
    <linearGradient
       inkscape:collect="always"
       xlink:href="#StandardGradient"
       id="linearGradient5064"
       gradientUnits="userSpaceOnUse"
       x1="7.4833517"
       y1="0.4833518"
       x2="7.4833517"
       y2="15.009191" />
    <inkscape:perspective
       id="perspective19-5"
       inkscape:persp3d-origin="11 : 7.3333333 : 1"
       inkscape:vp_z="22 : 11 : 1"
       inkscape:vp_y="0 : 1000 : 0"
       inkscape:vp_x="0 : 11 : 1"
       sodipodi:type="inkscape:persp3d" />
    <linearGradient
       y2="17.478098"
       x2="11.998966"
       y1="0.92195445"
       x1="11.998966"
       gradientTransform="matrix(0.9247229,0,0,1.0872097,-2.0600562,0.9976422)"
       gradientUnits="userSpaceOnUse"
       id="linearGradient3587"
       xlink:href="#StandardGradient"
       inkscape:collect="always" />
    <linearGradient
       y2="17.478098"
       x2="11.998966"
       y1="0.92195445"
       x1="11.998966"
       gradientTransform="matrix(0.9247229,0,0,1.0872097,-4.0600562,-3.0023583)"
       gradientUnits="userSpaceOnUse"
       id="linearGradient3589"
       xlink:href="#StandardGradient"
       inkscape:collect="always" />
    <linearGradient
       y2="17.478098"
       x2="11.998966"
       y1="0.92195445"
       x1="11.998966"
       gradientTransform="matrix(0.9247229,0,0,1.0872097,-5.0600562,-1.0023583)"
       gradientUnits="userSpaceOnUse"
       id="linearGradient3591"
       xlink:href="#StandardGradient"
       inkscape:collect="always" />
    <linearGradient
       y2="17.478098"
       x2="11.998966"
       y1="0.92195445"
       x1="11.998966"
       gradientTransform="matrix(0.9247229,0,0,1.0872097,-4.0600562,-3.0023583)"
       gradientUnits="userSpaceOnUse"
       id="linearGradient3593"
       xlink:href="#StandardGradient"
       inkscape:collect="always" />
    <linearGradient
       y2="17.478098"
       x2="11.998966"
       y1="0.92195445"
       x1="11.998966"
       gradientTransform="matrix(0.9247229,0,0,1.0872097,-4.0600562,-3.0023583)"
       gradientUnits="userSpaceOnUse"
       id="linearGradient3595"
       xlink:href="#StandardGradient"
       inkscape:collect="always" />
    <linearGradient
       y2="15.638639"
       x2="11.998966"
       y1="3.6800685"
       x1="11.998966"
       gradientTransform="matrix(0.9247229,0,0,1.0872097,-6.0600562,-2.0023583)"
       gradientUnits="userSpaceOnUse"
       id="linearGradient3597"
       xlink:href="#StandardGradient"
       inkscape:collect="always" />
    <linearGradient
       y2="15.638639"
       x2="11.998966"
       y1="2.7615263"
       x1="11.998966"
       gradientTransform="matrix(0.9247229,0,0,1.0872097,-6.0600562,-2.0023583)"
       gradientUnits="userSpaceOnUse"
       id="linearGradient3599"
       xlink:href="#StandardGradient"
       inkscape:collect="always" />
    <inkscape:perspective
       sodipodi:type="inkscape:persp3d"
       inkscape:vp_x="0 : 0.5 : 1"
       inkscape:vp_y="0 : 1000 : 0"
       inkscape:vp_z="1 : 0.5 : 1"
       inkscape:persp3d-origin="0.5 : 0.33333333 : 1"
       id="perspective3648-6" />
    <linearGradient
       y2="15.638639"
       x2="11.998966"
       y1="2.7615263"
       x1="11.998966"
       gradientTransform="matrix(0.9247229,0,0,1.0872097,-26.060056,-2.0023583)"
       gradientUnits="userSpaceOnUse"
       id="linearGradient3602"
       xlink:href="#StandardGradient"
       inkscape:collect="always" />
    <clipPath
       id="clipPath3641-6"
       clipPathUnits="userSpaceOnUse">
      <path
         id="path3643-3"
         d="m -20,0 0,16 16,0 0,-16 -16,0 z m 3,1 3,0 c 0.554,0 1,0.446 1,1 l 6,0 c 0.554,0 1,0.446 1,1 l -12,0 0,-1 c 0,-0.554 0.446,-1 1,-1 z m -0.5,3 11,0 C -5.669,4 -5,4.669 -5,5.5 l 0,6 c 0,0.831 -0.669,1.5 -1.5,1.5 l -5.5,0 0,-3 -2,0 0,-2 -4,0 0,2 -1,0 0,-4.5 C -19,4.669 -18.331,4 -17.5,4 z m 0.5,5 2,0 0,2 2,0 0,2 -2,0 0,2 -2,0 0,-2 -2,0 0,-2 2,0 0,-2 z"
         style="fill:#ff00ff;fill-opacity:1;stroke:none;display:inline" />
    </clipPath>
    <linearGradient
       y2="15.638639"
       x2="11.998966"
       y1="2.7615263"
       x1="11.998966"
       gradientTransform="matrix(0.9247229,0,0,1.0872097,-6.0600562,-3.0023583)"
       gradientUnits="userSpaceOnUse"
       id="linearGradient3606"
       xlink:href="#StandardGradient"
       inkscape:collect="always" />
    <linearGradient
       y2="15.638639"
       x2="11.998966"
       y1="3.6812673"
       x1="11.998966"
       gradientTransform="matrix(0.9247229,0,0,1.0872097,-6.0600562,-3.0023583)"
       gradientUnits="userSpaceOnUse"
       id="linearGradient3608"
       xlink:href="#StandardGradient"
       inkscape:collect="always" />
    <linearGradient
       y2="15.638639"
       x2="11.998966"
       y1="3.6812673"
       x1="11.998966"
       gradientTransform="matrix(0.9247229,0,0,1.0872097,-6.0600562,-2.0023583)"
       gradientUnits="userSpaceOnUse"
       id="linearGradient3610"
       xlink:href="#StandardGradient"
       inkscape:collect="always" />
    <linearGradient
       y2="15.638639"
       x2="11.998966"
       y1="3.6812673"
       x1="11.998966"
       gradientTransform="matrix(0.9247229,0,0,1.0872097,-6.0600562,-3.0023583)"
       gradientUnits="userSpaceOnUse"
       id="linearGradient3612"
       xlink:href="#StandardGradient"
       inkscape:collect="always" />
    <linearGradient
       y2="15.638639"
       x2="11.998966"
       y1="3.6812673"
       x1="11.998966"
       gradientTransform="matrix(0.9247229,0,0,1.0872097,-6.0600562,-2.0023583)"
       gradientUnits="userSpaceOnUse"
       id="linearGradient3614"
       xlink:href="#StandardGradient"
       inkscape:collect="always" />
    <linearGradient
       y2="15.638639"
       x2="11.998966"
       y1="3.6812673"
       x1="11.998966"
       gradientTransform="matrix(0.9247229,0,0,1.0872097,-6.0600562,-3.0023583)"
       gradientUnits="userSpaceOnUse"
       id="linearGradient3616"
       xlink:href="#StandardGradient"
       inkscape:collect="always" />
    <linearGradient
       y2="15.638639"
       x2="11.998966"
       y1="3.6812673"
       x1="11.998966"
       gradientTransform="matrix(0.9247229,0,0,1.0872097,-26.060056,-2.0023583)"
       gradientUnits="userSpaceOnUse"
       id="linearGradient3618"
       xlink:href="#StandardGradient"
       inkscape:collect="always" />
    <clipPath
       id="clipPath3685-0"
       clipPathUnits="userSpaceOnUse">
      <path
         id="path3687-0"
         d="m -20,0 0,16 16,0 0,-16 -16,0 z m 2,2 12,0 c 0.554,0 1,0.446 1,1 l 0,9 c 0,0.554 -0.446,1 -1,1 l -6,0 0,-2 4,0 -2.5,-2.5 -1.5,1.5 -5,-5 0,3 -1,0 0,2 -1,0 0,-7 c 0,-0.554 0.446,-1 1,-1 z m 2,2 4,4 4,-4 -8,0 z M -7,5 -9.5,7.5 -7,10 -7,5 z m -10,4 2,0 0,2 2,0 0,2 -2,0 0,2 -2,0 0,-2 -2,0 0,-2 2,0 0,-2 z"
         style="fill:#ff00ff;fill-opacity:1;stroke:none;display:inline" />
    </clipPath>
    <linearGradient
       y2="15.638639"
       x2="11.998966"
       y1="3.6812673"
       x1="11.998966"
       gradientTransform="matrix(0.9247229,0,0,1.0872097,-26.060056,-3.0023583)"
       gradientUnits="userSpaceOnUse"
       id="linearGradient3622"
       xlink:href="#StandardGradient"
       inkscape:collect="always" />
    <clipPath
       id="clipPath2870-1"
       clipPathUnits="userSpaceOnUse">
      <path
         id="path2872-0"
         d="m -20,0 0,16 16,0 0,-16 -16,0 z m 2,1 12,0 c 0.554,0 1,0.446 1,1 l 0,9 c 0,0.554 -0.446,1 -1,1 l -6,0 0,-2 4,0 -2.5,-2.5 -1.5,1.5 -5,-5 0,3 -1,0 0,2 -1,0 0,-7 c 0,-0.554 0.446,-1 1,-1 z m 2,2 4,4 4,-4 -8,0 z M -7,4 -9.5,6.5 -7,9 -7,4 z m -10,4 2,0 0,2 2,0 0,2 -2,0 0,2 -2,0 0,-2 -2,0 0,-2 2,0 0,-2 z"
         style="fill:#ff00ff;fill-opacity:1;stroke:none;display:inline" />
    </clipPath>
    <inkscape:perspective
       sodipodi:type="inkscape:persp3d"
       inkscape:vp_x="0 : 0.5 : 1"
       inkscape:vp_y="0 : 1000 : 0"
       inkscape:vp_z="1 : 0.5 : 1"
       inkscape:persp3d-origin="0.5 : 0.33333333 : 1"
       id="perspective3764-4" />
    <linearGradient
       gradientTransform="translate(0,1)"
       y2="15.009191"
       x2="7.4833517"
       y1="0.4833518"
       x1="7.4833517"
       gradientUnits="userSpaceOnUse"
       id="linearGradient3627"
       xlink:href="#StandardGradient"
       inkscape:collect="always" />
    <linearGradient
       y2="15.009191"
       x2="7.4833517"
       y1="0.4833518"
       x1="7.4833517"
       gradientUnits="userSpaceOnUse"
       id="linearGradient3629"
       xlink:href="#StandardGradient"
       inkscape:collect="always" />
    <linearGradient
       gradientTransform="translate(0,1)"
       y2="15.009191"
       x2="7.4833517"
       y1="0.4833518"
       x1="7.4833517"
       gradientUnits="userSpaceOnUse"
       id="linearGradient3631"
       xlink:href="#StandardGradient"
       inkscape:collect="always" />
    <linearGradient
       y2="15.009191"
       x2="7.4833517"
       y1="0.4833518"
       x1="7.4833517"
       gradientUnits="userSpaceOnUse"
       id="linearGradient3633"
       xlink:href="#StandardGradient"
       inkscape:collect="always" />
    <linearGradient
       gradientTransform="translate(-20,0)"
       y2="15.009191"
       x2="7.4833517"
       y1="0.4833518"
       x1="7.4833517"
       gradientUnits="userSpaceOnUse"
       id="linearGradient3635"
       xlink:href="#StandardGradient"
       inkscape:collect="always" />
    <clipPath
       id="clipPath3686-8"
       clipPathUnits="userSpaceOnUse">
      <path
         id="path3688-7"
         d="m -20,0 0,16 16,0 0,-16 -16,0 z m 9,1 4,0 0,4 2,0 -4,4 -4,-4 2,0 0,-4 z m -4,6 4,4 -2,0 0,4 -4,0 0,-4 -2,0 4,-4 z"
         style="fill:#ff00ff;fill-opacity:1;stroke:none;display:inline" />
    </clipPath>
    <linearGradient
       y2="15.009191"
       x2="7.4833517"
       y1="0.4833518"
       x1="7.4833517"
       gradientUnits="userSpaceOnUse"
       id="linearGradient3639"
       xlink:href="#StandardGradient"
       inkscape:collect="always" />
    <linearGradient
       y2="15.009191"
       x2="7.4833517"
       y1="0.4833518"
       x1="7.4833517"
       gradientUnits="userSpaceOnUse"
       id="linearGradient3641"
       xlink:href="#StandardGradient"
       inkscape:collect="always" />
  </defs>
  <metadata
     id="metadata7">
    <rdf:RDF>
      <cc:Work
         rdf:about="">
        <dc:format>image/svg+xml</dc:format>
        <dc:type
           rdf:resource="http://purl.org/dc/dcmitype/StillImage" />
        <dc:title></dc:title>
      </cc:Work>
    </rdf:RDF>
  </metadata>
  <g
     style="display:inline"
     inkscape:label="Calque 1"
     id="layer1"
     inkscape:groupmode="layer">
    <path
       style="display:inline;fill:#bebebe;fill-opacity:1;stroke:none"
       d="m 17.889795,-3.5136718 c -0.01,0.013833 -0.01,0.017437 -0.01198,0.025391 0,0.00471 -0.01,0.00908 -0.01,0.013672 0.01,-0.013146 0.01398,-0.025937 0.02197,-0.039063 z M 12,1 l 4,4.0000001 -4,4 L 12,6 7,5.9999989 7,9 5,9 5,4 12,4 Z"
       id="path3710"
       inkscape:connector-curvature="0"
       sodipodi:nodetypes="ccccccccccccccc" />
    <g
       style="display:inline"
       id="g3643"
       transform="matrix(0.84642592,0,0,1,1.6065157,-0.00529994)">
      <g
         id="layer1-5"
         inkscape:label="Calque 1"
         style="display:inline">
        <path
           inkscape:connector-curvature="0"
           id="path3710-3"
           d="m -1.9,2.4863281 c 0.01,0.013833 0.01,0.017437 0.012,0.025391 0,0.00471 0.01,0.00908 0.01,0.013672 -0.01,-0.013146 -0.014,-0.025937 -0.022,-0.039063 z m 4.727754,4.5189718 -4.7257532,4.0000001 4.7257532,4 0,-3 8.270068,0 0,-5.0000001 -2.3628765,0 0,3.0000001 -5.9071915,0 z"
           style="display:inline;fill:#bebebe;fill-opacity:1;stroke:none"
           sodipodi:nodetypes="cccccccccccccc" />
      </g>
    </g>
  </g>
</svg>
