<?xml version="1.0" encoding="UTF-8" standalone="no"?>
<!-- Created with Inkscape (http://www.inkscape.org/) -->

<svg
   xmlns:dc="http://purl.org/dc/elements/1.1/"
   xmlns:cc="http://creativecommons.org/ns#"
   xmlns:rdf="http://www.w3.org/1999/02/22-rdf-syntax-ns#"
   xmlns:svg="http://www.w3.org/2000/svg"
   xmlns="http://www.w3.org/2000/svg"
   xmlns:xlink="http://www.w3.org/1999/xlink"
   xmlns:sodipodi="http://sodipodi.sourceforge.net/DTD/sodipodi-0.dtd"
   xmlns:inkscape="http://www.inkscape.org/namespaces/inkscape"
   id="svg7384"
   height="16"
   width="16"
   version="1.1"
   inkscape:version="0.48.3.1 r9886"
   sodipodi:docname="tweak-tool-symbolic.svg">
  <defs
     id="defs10">
    <inkscape:perspective
       sodipodi:type="inkscape:persp3d"
       inkscape:vp_x="0 : 8 : 1"
       inkscape:vp_y="0 : 1000 : 0"
       inkscape:vp_z="16 : 8 : 1"
       inkscape:persp3d-origin="8 : 5.3333333 : 1"
       id="perspective16" />
    <linearGradient
       id="StandardGradient"
       gradientTransform="scale(1.0784122,0.9272892)"
       x1="9.0752506"
       y1="2.2159534"
       x2="9.0752506"
       y2="13.952041"
       gradientUnits="userSpaceOnUse">
      <stop
         style="stop-color:#000000;stop-opacity:0.86274511;"
         offset="0"
         id="stop3280" />
      <stop
         style="stop-color:#000000;stop-opacity:0.47058824;"
         offset="1"
         id="stop3282" />
    </linearGradient>
    <inkscape:perspective
       id="perspective3697"
       inkscape:persp3d-origin="0.5 : 0.33333333 : 1"
       inkscape:vp_z="1 : 0.5 : 1"
       inkscape:vp_y="0 : 1000 : 0"
       inkscape:vp_x="0 : 0.5 : 1"
       sodipodi:type="inkscape:persp3d" />
    <linearGradient
       inkscape:collect="always"
       xlink:href="#StandardGradient"
       id="linearGradient3625"
       gradientUnits="userSpaceOnUse"
       gradientTransform="matrix(1.0784122,0,0,0.9272892,-20,0)"
       x1="9.0752506"
       y1="2.2159534"
       x2="9.0752506"
       y2="13.952041" />
    <clipPath
       clipPathUnits="userSpaceOnUse"
       id="clipPath3632">
      <path
         style="fill:#ff00ff;fill-opacity:1;stroke:none;display:inline"
         d="m -20,0 0,16 16,0 0,-16 -16,0 z m 8.09375,2.0625 c 0.173909,-0.017258 0.321577,0 0.5,0 2.967459,0 5.375001,2.4264215 5.375,5.4375 0,2.864578 -2.17034,5.215497 -4.9375,5.4375 l 0,-1.84375 C -9.191791,10.880677 -7.8125,9.3611571 -7.8125,7.5 c 0,-2.0073863 -1.615444,-3.624999 -3.59375,-3.625 -1.86764,0 -3.365967,1.4304651 -3.53125,3.28125 l 1.875,0 -2.90625,4.09375 -2.71875,-4.09375 1.9375,0 c 0.162577,-2.6743762 2.235116,-4.834874 4.84375,-5.09375 z"
         id="path3634" />
    </clipPath>
    <linearGradient
       inkscape:collect="always"
       xlink:href="#StandardGradient"
       id="linearGradient3999"
       gradientUnits="userSpaceOnUse"
       gradientTransform="scale(1.0784122,0.9272892)"
       x1="9.0752506"
       y1="2.2159534"
       x2="9.0752506"
       y2="13.952041" />
    <linearGradient
       inkscape:collect="always"
       xlink:href="#StandardGradient"
       id="linearGradient4003"
       gradientUnits="userSpaceOnUse"
       gradientTransform="scale(1.0784122,0.9272892)"
       x1="9.0752506"
       y1="2.2159534"
       x2="9.0752506"
       y2="13.952041" />
  </defs>
  <sodipodi:namedview
     pagecolor="#ffffff"
     bordercolor="#666666"
     borderopacity="1"
     objecttolerance="10"
     gridtolerance="10"
     guidetolerance="10"
     inkscape:pageopacity="0"
     inkscape:pageshadow="2"
     inkscape:window-width="1280"
     inkscape:window-height="972"
     id="namedview8"
     showgrid="false"
     inkscape:zoom="14.75"
     inkscape:cx="-3.1525424"
     inkscape:cy="8"
     inkscape:window-x="0"
     inkscape:window-y="27"
     inkscape:window-maximized="1"
     inkscape:current-layer="svg7384" />
  <metadata
     id="metadata90">
    <rdf:RDF>
      <cc:Work
         rdf:about="">
        <dc:format>image/svg+xml</dc:format>
        <dc:type
           rdf:resource="http://purl.org/dc/dcmitype/StillImage" />
        <dc:title>Gnome Symbolic Icon Theme</dc:title>
      </cc:Work>
    </rdf:RDF>
  </metadata>
  <title
     id="title9167">Gnome Symbolic Icon Theme</title>
  <g
     transform="matrix(0.7875,0,0,0.78749807,-1.2677263,-811.13579)"
     id="layer1"
     inkscape:label="Layer 1">
    <g
       transform="translate(3.8137557,1032.1749)"
       id="g3756">
      <g
         id="layer11"
         transform="translate(-62,-530)">
        <path
           inkscape:connector-curvature="0"
           id="rect11749-53"
           style="text-indent:0;text-transform:none;block-progression:tb;color:#bebebe;fill:#bebebe"
           d="m 64.188,530 c -1.2016,0 -2.1875,0.98751 -2.1875,2.1874 v 8.6244 c 0,1.1998 0.98591,2.1874 2.1875,2.1874 h 11.625 c 1.2016,0 2.1875,-0.98752 2.1875,-2.1874 v -8.6244 C 78.0005,530.9876 77.01459,530 75.813,530 H 64.188 z m 0,1.9999 h 11.625 c 0.1238,0 0.1875,0.0566 0.1875,0.18749 v 8.6244 c 0,0.13088 -0.0637,0.18748 -0.1875,0.18748 H 64.188 c -0.1238,0 -0.1875,-0.0566 -0.1875,-0.18748 v -8.6244 c 0,-0.13088 0.0637,-0.18749 0.1875,-0.18749 z" />
        <path
           inkscape:connector-curvature="0"
           id="path11751-8"
           style="text-indent:0;text-transform:none;block-progression:tb;color:#bebebe;fill:#bebebe"
           d="m 66.899,544 a 0.99325634,0.99999645 0 0 0 0.093,1.9978 h 5.9529 a 0.99225,0.99898 0 1 0 0,-1.9978 H 66.992 a 0.99225,0.99898 0 0 0 -0.093,0 z" />
        <path
           inkscape:connector-curvature="0"
           id="rect4262"
           style="opacity:0.35;color:#000000;fill:#bebebe"
           d="m 70,533 v 5.9996 h -5 v 0.99993 h 10 v -6.9995 z" />
        <path
           inkscape:connector-curvature="0"
           id="rect4262-6"
           style="color:#000000;fill:#bebebe"
           d="m 69,533 -4,4.9997 h 4 z" />
      </g>
      <g
         transform="matrix(0.29541284,0,0,0.28572041,-122.0637,-111.53417)"
         id="layer15">
        <path
           d="m 449,402 c -0.22065,0 -0.44081,0.0113 -0.65625,0.0312 l -0.40625,2.0938 c -0.33446,0.0733 -0.66305,0.17589 -0.96875,0.3125 l -1.5312,-1.4688 c -0.38863,0.23011 -0.72695,0.51408 -1.0625,0.8125 l 0.90625,1.9062 c -0.22242,0.24899 -0.42425,0.5225 -0.59375,0.8125 l -2.0938,-0.28125 c -0.17772,0.40877 -0.30872,0.83637 -0.40625,1.2812 l 1.8438,1 c -0.0171,0.16809 -0.0312,0.3274 -0.0312,0.5 0,0.1726 0.0142,0.33191 0.0312,0.5 l -1.8438,1 c 0.0975,0.44488 0.22853,0.87248 0.40625,1.2812 l 2.0938,-0.28125 c 0.1695,0.29 0.37133,0.56351 0.59375,0.8125 l -0.90625,1.9062 c 0.33555,0.29842 0.67387,0.58239 1.0625,0.8125 l 1.5312,-1.4688 c 0.3057,0.13661 0.63429,0.23916 0.96875,0.3125 l 0.40625,2.0938 c 0.21544,0.02 0.4356,0.0312 0.65625,0.0312 0.22065,0 0.44081,-0.0113 0.65625,-0.0312 l 0.40625,-2.0938 c 0.33446,-0.0733 0.66305,-0.17589 0.96875,-0.3125 l 1.5312,1.4688 c 0.38863,-0.23011 0.72695,-0.51408 1.0625,-0.8125 l -0.90625,-1.9062 c 0.22242,-0.24899 0.42425,-0.5225 0.59375,-0.8125 l 2.0938,0.28125 c 0.17772,-0.40877 0.30872,-0.83637 0.40625,-1.2812 l -1.8438,-1 c 0.0171,-0.16809 0.0312,-0.3274 0.0312,-0.5 0,-0.1726 -0.0142,-0.33191 -0.0312,-0.5 l 1.8438,-1 c -0.0975,-0.44488 -0.22853,-0.87248 -0.40625,-1.2812 l -2.0938,0.28125 c -0.1695,-0.29 -0.37133,-0.56351 -0.59375,-0.8125 l 0.90625,-1.9062 c -0.33555,-0.29842 -0.67387,-0.58239 -1.0625,-0.8125 l -1.5312,1.4688 c -0.3057,-0.13661 -0.63429,-0.23916 -0.96875,-0.3125 l -0.40625,-2.0938 C 449.44081,402.0112 449.22065,402 449,402 z m 0,4 c 1.6568,0 3,1.3432 3,3 0,1.6568 -1.3432,3 -3,3 -1.6568,0 -3,-1.3432 -3,-3 0,-1.6568 1.3432,-3 3,-3 z"
           style="color:#000000;fill:#bebebe"
           id="path35543-6-4"
           inkscape:connector-curvature="0" />
      </g>
    </g>
  </g>
</svg>
