<?xml version="1.0" encoding="UTF-8" standalone="no"?>
<!-- Created with Inkscape (http://www.inkscape.org/) -->

<svg
   xmlns:dc="http://purl.org/dc/elements/1.1/"
   xmlns:cc="http://creativecommons.org/ns#"
   xmlns:rdf="http://www.w3.org/1999/02/22-rdf-syntax-ns#"
   xmlns:svg="http://www.w3.org/2000/svg"
   xmlns="http://www.w3.org/2000/svg"
   xmlns:sodipodi="http://sodipodi.sourceforge.net/DTD/sodipodi-0.dtd"
   xmlns:inkscape="http://www.inkscape.org/namespaces/inkscape"
   id="svg7384"
   height="16"
   width="16"
   version="1.1"
   inkscape:version="0.48.4 r9939"
   sodipodi:docname="user-logout-symbolic.svg">
  <defs
     id="defs10" />
  <sodipodi:namedview
     pagecolor="#ffffff"
     bordercolor="#666666"
     borderopacity="1"
     objecttolerance="10"
     gridtolerance="10"
     guidetolerance="10"
     inkscape:pageopacity="0"
     inkscape:pageshadow="2"
     inkscape:window-width="793"
     inkscape:window-height="447"
     id="namedview8"
     showgrid="false"
     inkscape:zoom="14.75"
     inkscape:cx="4.759322"
     inkscape:cy="8"
     inkscape:window-x="98"
     inkscape:window-y="69"
     inkscape:window-maximized="0"
     inkscape:current-layer="svg7384" />
  <metadata
     id="metadata90">
    <rdf:RDF>
      <cc:Work
         rdf:about="">
        <dc:format>image/svg+xml</dc:format>
        <dc:type
           rdf:resource="http://purl.org/dc/dcmitype/StillImage" />
        <dc:title>Gnome Symbolic Icon Theme</dc:title>
      </cc:Work>
    </rdf:RDF>
  </metadata>
  <title
     id="title9167">Gnome Symbolic Icon Theme</title>
  <g
     transform="matrix(1.2362,0,0,1.0813077,-53.4158,-365.54031)"
     id="layer9">
    <path
       d="m 47,345 c -1.5545,0.11593 -3,1.4148 -3,3 v 4 h 10 v -4 c 0,-1.5852 -1.4455,-2.8841 -3,-3 v 1 h -4 z"
       style="color:#bebebe;fill:#bebebe"
       id="rect20599"
       inkscape:connector-curvature="0" />
    <path
       transform="matrix(1.2,0,0,1.2,-10.4,-69)"
       d="m 52,342.5 a 2.5,2.5 0 1 1 -5,0 2.5,2.5 0 1 1 5,0 z"
       style="color:#bebebe;fill:#bebebe"
       id="path20580"
       inkscape:connector-curvature="0" />
  </g>
  <g
     transform="matrix(0.50610314,0,0,0.45146129,-51.100876,-281.37128)"
     id="layer12">
    <path
       d="m 125.03,628 h 1 c 0.0104,-1.2e-4 0.0208,-4.6e-4 0.0313,0 0.25495,0.0112 0.50987,0.12858 0.6875,0.3125 l 5.2812,5.2188 -5.2812,5.1875 c -0.19,0.19 -0.45,0.28 -0.72,0.28 h -1 v -1 c 0,-0.26529 0.0931,-0.53058 0.28125,-0.71875 l 3.8125,-3.75 -3.8125,-3.7812 c -0.21074,-0.19463 -0.30316,-0.46925 -0.28125,-0.75 v -1 z"
       style="text-indent:0;text-transform:none;block-progression:tb;color:#bebebe;fill:#bebebe;enable-background:new"
       id="path10839-9-9"
       inkscape:connector-curvature="0" />
  </g>
</svg>
